<?xml version="1.0" encoding="UTF-8"?>
<!DOCTYPE svg PUBLIC "-//W3C//DTD SVG 1.1//EN" "http://www.w3.org/Graphics/SVG/1.1/DTD/svg11.dtd">
<svg version="1.1" xmlns="http://www.w3.org/2000/svg" xmlns:xlink="http://www.w3.org/1999/xlink" x="0" y="0" width="576.536" height="576.536" viewBox="0, 0, 576.536, 576.536">
  <g id="Capa_2" transform="translate(0, -0)">
    <g>
      <path d="M553.876,176.056 C568.912,211.605 576.536,249.359 576.536,288.267 C576.536,360.173 549.907,429.044 501.555,482.192 C453.536,534.976 388.15,567.962 317.462,575.071 C316.974,575.121 316.486,575.163 315.998,575.204 C315.764,575.223 315.532,575.243 315.304,575.263 C306.237,576.108 297.141,576.536 288.269,576.536 C255.936,576.536 224.186,571.215 193.898,560.72 C164.628,550.578 137.284,535.814 112.627,516.84 C96.1,504.123 80.917,489.579 67.502,473.614 C61.17,466.082 55.19,458.188 49.726,450.153 C37.825,432.647 27.861,413.836 20.111,394.241 C6.767,360.499 -0,324.844 -0,288.267 C-0,249.359 7.624,211.605 22.66,176.056 C37.18,141.727 57.963,110.901 84.432,84.432 C110.9,57.963 141.728,37.18 176.056,22.66 C211.606,7.624 249.36,0 288.269,0 C327.177,0 364.93,7.624 400.479,22.66 C434.808,37.18 465.634,57.963 492.103,84.432 C518.572,110.901 539.355,141.727 553.876,176.056" fill="#FEFEFE"/>
      <path d="M303.122,238.685 C303.126,238.714 303.132,238.743 303.135,238.772 C303.445,241.937 301.509,244.7 298.784,244.937 C296.036,245.178 293.545,242.762 293.241,239.547 C292.938,236.341 294.93,233.594 297.669,233.403 C297.85,233.39 298.029,233.391 298.207,233.401 C296.577,232.494 294.748,232.028 292.847,232.156 C286.911,232.554 282.525,238.487 283.152,245.436 C283.782,252.426 289.221,257.603 295.196,256.975 C301.065,256.358 305.202,250.358 304.531,243.596 C304.355,241.821 303.857,240.164 303.122,238.685" fill="#292929"/>
      <path d="M193.476,64.096 C191.946,63.709 181.82,61.446 180.599,61.129 C179.474,60.836 178.452,60.49 178.452,60.181 C178.452,59.857 178.811,59.665 179.299,59.557 C180.148,59.369 186.432,60.281 188.982,60.843 C204.647,64.294 225.355,71.777 239.726,79.759 C253.007,87.135 265.262,94.701 277.095,103.425 C280.199,105.713 289.707,113.491 289.084,113.54 C288.928,113.552 278.071,105.309 273.65,102.377 C270.588,100.347 267.09,98.023 264.016,96.061 C255.605,90.693 247.908,85.97 237.548,80.367 C232.08,77.409 226.57,75.022 221.188,72.888 C211.913,69.208 202.812,66.454 193.476,64.096 M194.984,178.051 C192.931,179.518 190.908,181.072 188.878,182.568 C188.376,182.939 187.873,183.309 187.369,183.67 C186.646,184.187 182.531,186.934 183.678,185.799 C186.697,182.807 189.949,179.867 193.515,177.539 C193.971,177.242 194.699,176.908 195.329,176.693 C196.57,176.268 197.42,176.31 194.984,178.051 M222.958,159.479 C225.775,157.63 228.641,155.874 231.534,154.168 C242.851,147.493 254.714,141.854 266.95,136.979 C271.66,135.102 276.399,133.267 281.192,131.598 C282.517,131.137 283.845,130.682 285.18,130.249 C287.166,129.605 289.24,128.882 291.353,128.183 C294.389,127.178 297.509,126.225 300.591,125.646 C302.289,125.327 304.084,125.261 304.613,125.5 C304.939,125.648 304.785,125.912 303.82,126.307 C302.512,126.843 300.214,127.492 297.558,128.308 C292.243,129.942 286.315,131.64 281.336,133.341 C275.253,135.419 272.992,136.369 266.659,138.76 C250.953,144.69 240.602,150.389 226.378,158.024 C224.953,158.789 221.617,160.36 222.958,159.479 M313.957,125.714 C314.401,125.448 315.115,125.8 315.622,126.196 C315.998,126.489 316.362,126.779 316.718,127.067 C322.752,131.945 326.247,136.326 332.395,143.741 C333.356,144.9 335.959,148.173 337.683,150.53 C338.7,151.92 338.948,152.352 339.297,153.123 C339.434,153.423 337.861,151.881 337.007,150.846 C335.847,149.438 329.303,142.203 327.744,140.546 C324.397,136.989 321.139,133.583 317.782,130.268 C317.069,129.564 314.152,126.885 313.9,125.979 C313.865,125.855 313.878,125.762 313.957,125.714 M404.308,150.239 C389.798,150.681 375.664,152.985 361.707,156.242 C358.346,157.027 354.995,157.868 351.652,158.752 C351.429,158.81 351.207,158.869 350.986,158.928 C349.512,159.32 348.04,159.72 346.57,160.127 C341.469,161.539 336.383,163.033 331.302,164.573 C313.337,170.018 295.945,176.449 278.702,183.809 C256.2,193.415 234.007,203.541 212.405,215.006 C215.243,212.461 218.691,210.125 221.755,208.082 C234.349,199.686 265.08,184.749 270.624,182.265 C294.293,171.662 318.971,162.47 343.42,155.171 C344.267,154.918 345.115,154.665 345.961,154.416 C346.816,154.166 347.67,153.922 348.524,153.676 C344.942,148.195 340.926,142.984 336.678,138.115 C332.642,133.488 327.686,127.589 321.993,123.922 C320.08,122.689 318.084,121.708 316.012,121.113 C313.328,120.341 310.494,120.108 307.634,120.199 C306.206,120.244 304.774,120.371 303.349,120.554 C302.536,120.659 301.725,120.779 300.921,120.916 C298.713,121.29 296.547,121.765 294.482,122.245 C282.247,125.092 269.649,129.566 258.057,134.286 C241.217,141.144 232.824,146.817 219.622,154.425 C218.955,154.811 218.273,155.195 217.595,155.579 C226.013,146.201 256.628,131.064 268.654,126.419 C276.773,123.282 287.822,119.827 296.991,117.765 C298.238,117.485 299.451,117.229 300.616,117.004 C300.618,117.004 300.619,117.004 300.621,117.003 C301.579,116.819 302.546,116.662 303.52,116.532 C298.775,112.557 293.625,108.972 288.902,105.454 C276.374,96.124 263.556,87.177 250.218,79.038 C238.197,71.703 225.585,65.551 212.309,60.816 C199.33,56.187 189.946,53.218 176.588,53.235 C163.899,53.25 159.689,55.646 149.094,64.042 C137.858,72.946 126.589,86.569 117.604,99.978 C110.179,111.061 107.44,122.846 105.873,135.193 C104.837,143.359 106.227,154.457 107.164,157.723 C107.726,159.682 109.161,161.126 110.809,161.126 C111.701,161.126 112.55,160.045 113.278,158.68 C114.24,156.876 117.02,149.565 117.818,147.855 C121.428,140.114 121.717,138.788 124.292,135.715 C127.221,132.221 137.367,124.058 146.255,118.86 C147.065,118.386 148.719,117.711 150.333,117.279 C150.476,114.906 150.898,112.456 151.199,110.632 C151.244,110.359 151.294,110.088 151.341,109.816 C151.495,108.939 151.66,108.071 151.836,107.215 C153.136,100.919 155.006,95.421 156.574,93.894 C155.644,96.984 154.801,101.078 154.162,105.85 C154.022,106.889 153.894,107.963 153.775,109.063 C153.518,111.448 153.31,113.958 153.17,116.576 C153.165,116.659 153.163,116.76 153.162,116.869 C153.153,117.55 153.221,118.656 153.56,119.126 C154.427,120.327 156.109,120.972 156.951,120.972 C157.785,120.972 158.721,120.777 159.719,120.45 C165.259,118.636 172.882,112.386 177.905,108.056 C176.236,111.187 172.555,115.918 168.646,119.189 C166.692,120.825 164.613,122.35 162.549,123.519 C164.838,126.489 166.968,132.367 168.798,136.812 C171.336,142.976 173.373,149.248 174.79,154.091 C177.062,161.852 178.784,170.596 179.217,179.192 C180.778,177.879 182.602,176.544 184.735,175.05 C187.715,172.963 191.614,170.866 194.953,169.351 C193.667,170.284 192.39,171.247 191.128,172.261 C187.049,175.538 182.625,179.136 179.316,183.465 C178.325,184.763 177.428,186.123 176.677,187.563 C175.591,189.645 175.065,192.409 174.726,194.698 C174.484,196.335 174.308,198.264 174.19,200.393 C173.673,209.743 174.304,222.979 175.591,232.669 C176.296,232.253 177.046,231.813 177.883,231.325 C178.334,231.061 178.817,230.791 179.317,230.516 C179.717,230.297 180.126,230.076 180.552,229.852 C186.225,226.873 193.954,223.636 197.861,223.01 C192.474,226.111 186.892,229.477 181.277,233.02 C180.668,233.405 180.06,233.785 179.451,234.174 C178.345,234.878 177.24,235.594 176.135,236.311 C172.691,238.546 169.257,240.834 165.868,243.166 C154.882,250.723 144.382,258.688 135.692,266.421 C130.167,271.338 111.019,289.918 105.404,300.555 C102.82,305.451 100.191,310.33 101.57,314.471 C103.359,319.846 126.496,314.968 134.408,312.778 C152.773,307.698 171.496,300.846 186.538,293.275 C186.664,290.64 186.746,287.939 186.795,285.225 C186.805,284.69 186.811,284.155 186.818,283.62 C186.899,277.646 186.838,271.674 186.774,266.285 C186.352,266.559 185.923,266.837 185.48,267.123 C179.828,270.766 172.484,276.069 173.855,274.072 C174.412,273.262 182.418,266.202 187.975,262.311 C188.965,261.618 190.01,260.891 191.084,260.147 C192.235,259.35 193.427,258.53 194.649,257.693 C203.072,251.929 212.862,245.462 219.711,241.438 C230.079,235.349 240.534,229.406 251.325,224.124 C267.748,216.087 284.533,208.26 301.794,202.181 C308.513,199.815 315.275,197.569 322.06,195.392 C323.883,194.807 325.705,194.218 327.532,193.644 C330.374,192.749 333.222,191.867 336.073,190.995 C338.648,190.207 352.273,186.832 354.66,187.235 C356.57,187.558 350.484,189.57 348.77,190.158 C344.675,191.562 340.203,193.049 335.872,194.474 C345.103,199.913 356.024,206.483 365.534,212.658 C366.525,213.302 367.503,213.942 368.46,214.575 C369.17,215.046 369.871,215.513 370.559,215.975 C380.956,211.383 390.744,204.812 400.25,198.958 C410.309,192.764 420.153,184.875 427.825,175.735 C433.142,169.4 439.136,159.74 435.563,153.977 C433.135,150.063 411.728,150.013 404.308,150.239" fill="#292929"/>
      <path d="M178.077,348.123 C181.158,348.326 183.609,348.64 184.858,348.872 C187.984,349.453 190.622,350.031 192.442,350.678 C196.077,351.969 196.668,352.799 196.895,353.04 C197.046,353.199 197.199,353.35 197.342,353.529 C197.91,354.246 198.306,355.195 198.562,355.985 C198.792,356.696 198.911,357.279 198.93,357.431 C201.374,377.534 199.394,398.511 192.654,417.841 C184.955,439.915 174.833,460.089 164.749,474.513 C158.275,483.77 146.665,499.735 141.433,497.056 C139.333,495.979 138.34,491.511 138.917,484.888 C134.154,491.368 128.139,498.44 122.384,504.159 C168.315,539.505 225.831,560.536 288.269,560.536 C296.887,560.536 305.407,560.116 313.821,559.333 C312.947,559.194 311.962,558.503 311.389,557.778 C308.036,553.538 307.431,540.753 309.434,519.101 C306.426,523.894 302.722,529.206 298.944,533.311 C294.445,538.2 289.847,541.376 286.218,539.911 C284.046,539.034 282.962,535.88 282.325,533.028 C280.488,524.811 280.479,518.513 280.488,513.337 C280.494,509.661 280.918,504.097 281.551,498.286 C278.101,506.054 273.479,513.862 267.156,515.991 C265.393,516.585 264.142,516.489 263.232,515.944 C260.952,514.583 257.952,508.227 260.429,491.53 C261.661,483.222 262.84,476.581 264.813,470.128 C262.917,473.132 260.903,475.858 258.905,477.909 C254.749,482.175 251.006,479.104 250.614,473.499 C250.132,466.626 252.48,454.456 255.242,443.235 C254.798,443.751 254.333,444.272 253.845,444.8 C251.431,447.401 246.489,450.37 244.306,448.556 C241.505,446.226 241.255,442.073 243.166,427.675 C244.179,420.048 245.574,413.097 247.119,406.542 C245.765,408.501 244.195,410.343 242.303,411.845 C238.824,414.608 236.512,413.929 235.902,409.04 C235.744,407.78 235.757,405.833 235.869,403.606 C235.939,402.222 236.474,397.681 236.984,393.448 C237.265,391.104 238.031,382.933 238,380.243 C237.973,377.792 237.845,375.155 237.629,372.591 C235.465,376.731 232.636,379.446 230.317,376.446 C227.207,372.423 227.367,363.384 222.921,356.008 C219.077,349.631 215.474,347.447 206.551,345.504 C202.059,344.525 193.286,343.338 183.872,344.002 C183.023,345.338 181.781,347.069 178.077,348.123" fill="#F69634"/>
      <path d="M295.196,256.975 C289.22,257.603 283.782,252.426 283.152,245.436 C282.525,238.488 286.911,232.555 292.846,232.156 C294.748,232.029 296.577,232.495 298.207,233.402 C300.676,233.538 302.798,235.783 303.122,238.686 C303.857,240.163 304.355,241.822 304.531,243.596 C305.202,250.359 301.065,256.358 295.196,256.975 M314.43,245.479 C313.491,238.079 309.423,232.066 304.568,228.868 C302.693,227.633 298.561,225.408 293.646,224.995 C293.159,224.954 292.666,224.928 292.165,224.926 C291.995,224.924 291.824,224.928 291.653,224.932 C291.53,224.934 291.407,224.936 291.283,224.941 C291.079,224.949 290.873,224.965 290.668,224.982 C290.554,224.992 290.442,224.997 290.329,225.008 C290.085,225.033 289.839,225.066 289.592,225.1 C289.516,225.111 289.441,225.118 289.365,225.13 C289.041,225.182 288.716,225.242 288.389,225.314 C288.329,225.327 288.267,225.344 288.207,225.359 C287.942,225.419 287.677,225.484 287.412,225.559 C287.3,225.592 287.189,225.63 287.078,225.663 C286.863,225.73 286.647,225.796 286.431,225.872 C286.302,225.919 286.175,225.971 286.047,226.02 C285.846,226.096 285.647,226.173 285.447,226.258 C285.311,226.316 285.175,226.38 285.039,226.443 C284.846,226.531 284.654,226.62 284.462,226.717 C284.322,226.788 284.182,226.863 284.043,226.939 C283.854,227.04 283.666,227.145 283.477,227.258 C283.336,227.34 283.195,227.426 283.054,227.514 C282.868,227.632 282.681,227.753 282.495,227.88 C282.354,227.977 282.213,228.074 282.071,228.174 C281.886,228.309 281.701,228.449 281.517,228.592 C281.377,228.701 281.237,228.809 281.098,228.923 C280.912,229.076 280.726,229.238 280.541,229.402 C280.406,229.52 280.27,229.637 280.135,229.76 C279.943,229.939 279.753,230.13 279.561,230.32 C279.436,230.445 279.309,230.566 279.184,230.695 C278.975,230.913 278.768,231.146 278.561,231.378 C278.457,231.497 278.351,231.607 278.247,231.729 C277.937,232.09 277.63,232.467 277.325,232.865 C275.402,235.374 274.553,238.898 273.976,242.57 C272.701,250.684 277.949,262.324 285.254,265.607 C291.971,264.076 301.812,263.803 308.404,264.703 C310.267,262.883 311.847,260.572 312.781,258.445 C315.478,252.301 314.711,247.684 314.43,245.479" fill="#F69634"/>
      <path d="M369.691,232.156 C370.187,231.771 372.428,231.593 375.285,231.551 C381.666,231.457 391.125,232.05 391.119,232.575 C391.114,233.031 388.196,233.721 387.246,234.023 C382.551,235.515 380.717,236.305 377.945,237.429 C376.204,238.135 374.149,239.063 372.671,238.838 C372.432,238.802 372.222,238.702 372.013,238.524 C371.703,238.261 371.391,237.821 370.98,237.12 C369.921,235.314 368.759,232.879 369.691,232.156 M315.842,559.153 C316.35,559.022 316.943,558.833 317.642,558.524 C318.265,558.251 318.878,557.915 319.453,557.528 C321.033,556.466 322.353,555.106 323.119,554.421 C333.302,545.298 345.758,524.343 356.335,486.962 C357.845,490.327 359.435,493.247 360.799,495.1 C364.023,499.477 367.33,500.87 369.301,498.112 C371.456,495.1 368.997,480.759 368.845,474.264 C368.669,466.684 368.573,458.147 368.8,449.887 C373.077,457.7 377.253,461.083 380.879,461.581 C384.153,462.03 384.935,459.962 384.796,457.448 L384.814,457.442 C384.806,457.415 384.798,457.389 384.791,457.362 C384.621,454.671 383.421,451.497 383.09,450.356 C380.292,440.719 378.232,431.665 376.653,422.796 C376.501,421.62 376.359,420.436 376.228,419.247 C375.77,415.071 375.036,410.928 374.258,406.792 C373.425,400.032 372.788,393.243 372.239,386.245 C369.889,356.29 371.625,338.39 373.62,315.578 C387.447,300.926 406.406,284.631 419.285,276.484 C437.679,264.849 465.27,252.91 484.777,249.106 C486.556,248.76 491.363,247.702 496.504,246.625 C501.644,245.547 518.6,242.591 520.936,242.129 C533.619,239.619 539.462,237.654 542.188,235.767 C542.586,235.428 542.794,234.836 542.135,234.802 C541.139,234.752 540.235,234.824 539.815,234.829 C527.34,234.973 509.082,235.886 488.863,238.127 C482.351,238.848 468.676,241.108 465.084,241.726 C451.951,243.985 446.101,245.295 438.498,247.24 C433.646,248.481 430.072,249.922 428.9,250.353 C414.404,255.69 403.561,267.533 393.442,278.848 C383.68,289.766 374.227,301.793 363.153,311.536 C362.973,311.708 362.788,311.875 362.605,312.046 L362.576,312.043 C361.592,312.896 360.601,313.738 359.59,314.552 C356.951,316.68 354.035,318.658 350.916,320.133 C347.569,321.716 343.989,322.718 340.258,322.68 C334.221,322.621 328.971,316.534 326.68,311.501 C322.431,302.165 318.049,284.816 316.508,272.248 C316.705,272.431 316.91,272.601 317.113,272.775 C317.753,273.322 318.414,273.817 319.069,274.26 C320.829,275.452 322.506,276.276 323.355,276.697 C332.422,281.201 341.028,280.82 349.144,278.391 C358.417,275.618 367.051,270.172 375.007,266.276 C392.081,257.918 408.967,250.937 427.438,246.265 C428.593,245.973 429.752,245.692 430.909,245.404 C430.975,245.385 431.041,245.362 431.107,245.344 C431.162,245.328 431.211,245.328 431.263,245.316 C451.723,240.231 471.513,237.215 492.386,234.298 C496.537,233.718 500.832,233.159 505.198,232.648 C506.814,232.423 508.195,232.273 509.417,232.175 C513.812,231.702 518.256,231.287 522.686,230.971 C528.637,230.548 536.8,229.766 543.006,228.665 C544.212,228.419 545.211,228.185 545.818,227.983 C548.04,227.243 549.207,226.04 549.214,225.501 C549.228,224.534 546.502,223.402 545.078,223.062 C528.485,219.099 510.822,217.133 499.914,216.287 C481.908,214.891 464.837,214.29 450.729,213.937 C444.866,213.791 432.162,213.215 415.722,214.37 C400.594,215.434 381.905,217.749 369.628,220.467 C369.626,220.466 369.624,220.465 369.622,220.463 C369.576,220.475 369.534,220.486 369.491,220.497 C369.4,220.52 369.311,220.543 369.237,220.561 C369.234,220.559 369.231,220.557 369.228,220.555 C368.178,219.771 367.096,218.991 366,218.213 C365.884,218.131 365.768,218.049 365.652,217.967 C364.777,217.348 363.891,216.733 362.993,216.119 C362.17,215.557 361.338,214.997 360.498,214.439 C356.643,211.88 352.623,209.361 348.569,206.901 C342.453,203.191 336.276,199.615 330.509,196.234 C329.181,196.669 327.893,197.091 326.66,197.494 C326.156,197.659 325.66,197.822 325.175,197.981 C323.836,198.421 322.585,198.832 321.431,199.214 C320.564,199.502 319.745,199.774 319.009,200.022 C296.36,207.644 274.688,216.81 253.084,227.542 C236.358,235.85 220.806,244.668 204.404,254.793 C201.337,256.687 198.754,258.374 196.084,260.143 C194.935,260.904 193.766,261.681 192.539,262.497 C192.057,262.816 191.567,263.141 191.064,263.474 C191.037,269.463 191.106,275.455 191.122,281.446 C191.127,283.183 191.121,284.921 191.111,286.658 C191.103,288.075 191.085,289.492 191.061,290.908 C190.991,295.134 190.835,299.357 190.55,303.576 C190.491,304.448 190.448,305.32 190.377,306.191 C189.473,317.267 187.928,328.453 185.515,339.45 C185.391,340.015 184.961,341.799 184.23,343.301 C184.103,343.561 183.972,343.797 183.873,344.002 C193.287,343.338 202.06,344.525 206.551,345.504 C215.474,347.447 219.078,349.631 222.921,356.008 C227.367,363.384 227.208,372.423 230.317,376.446 C232.636,379.446 235.465,376.731 237.629,372.591 C237.845,375.155 237.973,377.792 238.001,380.243 C238.031,382.932 237.265,391.104 236.984,393.448 C236.474,397.68 235.939,402.221 235.869,403.606 C235.757,405.833 235.745,407.78 235.902,409.04 C236.512,413.928 238.824,414.608 242.303,411.844 C244.195,410.343 245.765,408.501 247.119,406.542 C245.574,413.096 244.179,420.048 243.167,427.675 C241.255,442.073 241.505,446.225 244.306,448.555 C246.489,450.37 251.431,447.401 253.845,444.8 C254.334,444.272 254.798,443.751 255.242,443.235 C252.48,454.456 250.132,466.626 250.614,473.499 C251.006,479.104 254.75,482.175 258.905,477.909 C260.903,475.858 262.918,473.132 264.813,470.128 C262.84,476.581 261.662,483.221 260.429,491.53 C257.953,508.227 260.952,514.583 263.232,515.944 C264.142,516.489 265.393,516.585 267.156,515.991 C273.479,513.862 278.101,506.053 281.551,498.286 C280.919,504.096 280.494,509.661 280.488,513.337 C280.479,518.512 280.488,524.811 282.325,533.028 C282.962,535.88 284.046,539.034 286.218,539.911 C289.847,541.376 294.445,538.2 298.944,533.311 C302.722,529.206 306.426,523.893 309.434,519.1 C307.431,540.753 308.037,553.538 311.389,557.778 C311.962,558.503 312.947,559.194 313.821,559.333 C305.407,560.116 296.887,560.536 288.269,560.536 C225.832,560.536 168.315,539.505 122.384,504.159 C128.14,498.44 134.154,491.368 138.918,484.887 C138.34,491.51 139.334,495.979 141.434,497.055 C146.666,499.735 158.275,483.77 164.749,474.512 C174.834,460.089 184.956,439.915 192.654,417.841 C199.394,398.51 201.375,377.534 198.93,357.43 C198.912,357.279 198.793,356.696 198.562,355.985 C197.364,362.411 195.604,368.485 192.908,374.042 C192.403,375.083 191.915,376.085 191.436,377.069 C182.349,395.725 177.458,404.714 161.007,424.665 C159.141,426.928 152.036,434.524 148.707,434.124 C145.622,433.753 144.083,431.323 145.873,423.655 C137.302,432.757 123.685,447.489 108.678,454.856 C106.065,456.139 96.009,461.005 101.077,447.839 C95.714,452.339 88.152,458.005 79.75,463.319 C73.79,456.229 68.179,448.837 62.958,441.157 C67.441,439.048 71.44,436.891 74.607,434.862 C71.29,441.315 70.919,444.575 72.344,445.329 C75.31,446.895 86.247,440.698 88.57,439.493 C104.733,431.102 121.508,421.71 133.513,408.999 C131.065,415.798 131.965,418.384 134.003,418.325 C138.473,418.194 168.809,398.944 187.895,369.735 C189.508,367.266 191.051,364.735 192.481,362.129 C193.855,359.626 195.654,356.526 196.896,353.04 C196.669,352.799 196.078,351.969 192.442,350.677 C190.623,350.031 187.984,349.453 184.858,348.872 C183.609,348.639 181.158,348.326 178.077,348.123 C173.754,347.84 168.18,347.776 162.867,348.478 C155.888,349.401 148.802,350.314 141.45,352.135 C123.679,356.538 98.359,363.063 81.213,369.661 C67.674,374.872 51.942,380.641 34.99,388.356 C22.736,357.374 16,323.608 16,288.267 C16,137.899 137.898,16 288.269,16 C438.635,16 560.536,137.899 560.536,288.267 C560.536,429.329 453.258,545.333 315.842,559.153 M298.07,221.254 C303.92,221.181 310.599,223.079 315.321,227.333 C316.016,227.959 316.699,228.639 317.343,229.378 C318.66,230.889 319.8,232.667 320.46,234.873 C320.884,236.295 320.973,237.467 321.072,238.394 C321.229,239.877 321.156,240.801 321.038,241.51 C320.864,242.551 320.613,242.97 320.048,242.976 C319.795,242.979 319.564,242.862 319.353,242.528 C318.842,239.568 317.912,237.023 316.681,234.82 C314.09,230.177 310.22,227.005 306.375,224.47 C304.964,223.541 301.98,222.102 298.07,221.254 M308.404,264.702 C301.812,263.803 291.971,264.075 285.253,265.606 C277.949,262.324 272.701,250.684 273.976,242.57 C274.553,238.897 275.402,235.374 277.325,232.865 C277.629,232.468 277.937,232.091 278.247,231.728 C278.351,231.607 278.457,231.497 278.561,231.379 C278.768,231.146 278.975,230.913 279.184,230.695 C279.309,230.565 279.436,230.444 279.561,230.319 C279.753,230.13 279.943,229.939 280.135,229.76 C280.27,229.636 280.406,229.519 280.541,229.401 C280.726,229.237 280.912,229.075 281.098,228.923 C281.237,228.808 281.377,228.7 281.517,228.592 C281.701,228.449 281.886,228.308 282.071,228.175 C282.212,228.073 282.354,227.976 282.495,227.88 C282.681,227.754 282.868,227.632 283.054,227.514 C283.195,227.427 283.336,227.34 283.477,227.257 C283.666,227.146 283.854,227.041 284.043,226.939 C284.182,226.863 284.322,226.788 284.462,226.717 C284.654,226.62 284.846,226.53 285.039,226.442 C285.174,226.38 285.311,226.316 285.447,226.258 C285.647,226.172 285.846,226.095 286.046,226.019 C286.174,225.97 286.302,225.918 286.431,225.873 C286.647,225.797 286.863,225.73 287.078,225.664 C287.189,225.63 287.3,225.591 287.412,225.56 C287.677,225.484 287.942,225.419 288.207,225.358 C288.267,225.344 288.329,225.326 288.389,225.313 C288.715,225.241 289.041,225.181 289.365,225.13 C289.441,225.118 289.516,225.111 289.592,225.1 C289.838,225.065 290.085,225.032 290.329,225.008 C290.442,224.997 290.554,224.991 290.668,224.982 C290.873,224.966 291.079,224.949 291.283,224.941 C291.407,224.935 291.53,224.934 291.653,224.931 C291.824,224.927 291.995,224.925 292.165,224.926 C292.666,224.928 293.159,224.953 293.646,224.994 C298.561,225.408 302.693,227.633 304.568,228.868 C309.422,232.066 313.491,238.078 314.43,245.478 C314.711,247.683 315.478,252.301 312.781,258.445 C311.847,260.571 310.267,262.883 308.404,264.702 M278.548,267.799 C279.298,268.436 280.323,269.29 282.475,270.262 C283.603,270.772 284.898,270.897 285.334,270.822 C288.658,270.253 293.278,269.643 294.154,269.587 C296.865,269.41 300.716,269.322 304.957,269.957 C306.887,270.245 309.589,270.892 311.908,271.625 C310.673,271.611 308.809,271.359 306.92,271.359 C297.994,271.359 291.413,274.748 283.118,277.312 C275.515,279.662 268.688,281.297 257.316,280.768 C245.078,280.199 229.412,276.273 220.384,271.224 C221.39,270.056 222.244,269.071 222.595,268.654 C226.74,263.732 237.211,253.797 244.119,248.294 C249.267,244.193 256.434,237.888 261.928,234.299 C266.142,231.546 272.093,228.484 277.363,226.136 C272.473,230.138 269.955,236.822 269.33,240.807 C267.712,250.678 271.101,261.467 278.548,267.799 M553.876,176.056 C539.355,141.727 518.572,110.901 492.103,84.432 C465.634,57.963 434.808,37.18 400.479,22.66 C364.93,7.624 327.177,0 288.269,0 C249.36,0 211.606,7.624 176.056,22.66 C141.728,37.18 110.9,57.963 84.432,84.432 C57.963,110.901 37.18,141.727 22.66,176.056 C7.624,211.605 -0,249.359 -0,288.267 C-0,324.844 6.767,360.499 20.111,394.241 C27.861,413.836 37.825,432.647 49.726,450.153 C55.19,458.188 61.17,466.082 67.502,473.614 C80.917,489.579 96.1,504.123 112.627,516.84 C137.284,535.814 164.628,550.578 193.898,560.72 C224.186,571.215 255.936,576.536 288.269,576.536 C297.141,576.536 306.237,576.108 315.304,575.263 C315.532,575.243 315.764,575.223 315.998,575.204 C316.486,575.163 316.974,575.121 317.462,575.071 C388.15,567.962 453.536,534.976 501.555,482.192 C549.907,429.044 576.536,360.173 576.536,288.267 C576.536,249.359 568.912,211.605 553.876,176.056" fill="#292929"/>
    </g>
  </g>
</svg>
