<svg id="Logo" xmlns="http://www.w3.org/2000/svg" viewBox="0 0 408.48 163.93"><defs><style>.cls-1{fill:none;}.cls-2{fill:#b4afa8;}.cls-3{fill:#00b5db;}.cls-4{fill:#fff;}</style></defs><rect class="cls-1" width="408.48" height="163.93"/><path class="cls-2" d="M171.14,52.88c-1.95,0-4.23-2.24-8-2.24-3.39,0-5.58,1.91-5.58,4.48,0,2.16,1.26,4,6.6,4.73,7.44,1,10.24,3,10.24,6.81,0,5-4.32,8-11.6,8-5.5,0-9.9-2.32-9.9-3.52,0-.89,1-.77,1.86-.77,1.78,0,3.7,2.08,8.35,2.08,3.9,0,5.31-2.24,5.31-4.64,0-3-.71-4.53-5.45-5.09-6.85-.8-10.07-2.65-10.07-6.82,0-4.64,3.89-7.69,10.33-7.69,4.23,0,9.39,2.08,9.39,3.53,0,.64-.85,1.12-1.44,1.12"/><path class="cls-2" d="M185,72.92c3.21,0,5.92-2.25,5.92-5.13a3.5,3.5,0,0,0-3.8-3.37c-2.8,0-6.19,2.24-6.19,4.81A3.9,3.9,0,0,0,185,72.92m-7.45-3.13c0-3.29,3.13-5.13,7-5.61s6.17-2,6.17-3.69a4.08,4.08,0,0,0-4.06-4.17H186c-2.45,0-3.55,2.41-5.41,2.41-.51,0-1,.08-1-.56,0-1.6,3.39-2.65,6.43-2.65,9,0,8.3,3.13,8.3,10.91v5.84c0,1-.51,1.61-1.53,1.61-.84,0-2.37-.56-3.72-.56-2.54,0-3.22,1.12-5.92,1.12-3,0-5.59-1.77-5.59-4.65"/><path class="cls-2" d="M206.77,66.58c1.18,0,2.19-.88,2.7-2.56l1.78-6.33a2.64,2.64,0,0,1,2.63-2.08c.25,0,1.44.07,1.52,1.12a8.07,8.07,0,0,1-.59,2.16L210,72.2a2.83,2.83,0,0,1-2.87,2.16c-1.87,0-3.05-.48-3.81-2.64l-4.74-13.23c-.76-2.08-.34-2.81,1-2.81,2,0,2.54.33,3.39,4,1.1,4.73,1.78,6.89,3.81,6.89"/><path class="cls-2" d="M228.47,72.76c3.39,0,6.78-2.65,6.78-7.62,0-5.61-3.3-7.85-6.86-7.85a6.91,6.91,0,0,0-6.85,7.21c0,5.13,2.7,8.26,6.93,8.26m-.08,1.76c-6.26,0-10.16-3.77-10.16-9.54a9.14,9.14,0,0,1,9.32-9.46c7.1,0,11.08,3.29,11.08,9.54,0,5.77-4,9.46-10.24,9.46"/><path class="cls-2" d="M245.44,50.64c-1.27,0-1.69-.4-1.69-1s.42-1,1.35-1,1.7.24,1.7,1c0,.65-.85,1-1.36,1m1.78,20.75c0,1.85-.59,2.81-1.78,2.81-1.86,0-2.12-.48-2.12-4.17V58.65c0-1.92.43-2.88,1.87-2.88,2,0,2,.87,2,4.32Z"/><path class="cls-2" d="M262.32,56c.68,0,1.44.07,1.44,1.28,0,1-1.44,1.2-2.79,1.92a7.17,7.17,0,0,0-2.79,1.93A5.75,5.75,0,0,0,257,64.66v6.89c0,1.85-.59,2.73-1.69,2.73-2.21,0-2.54-.48-2.54-3.85V58.33c0-1.85.68-2.81,2.12-2.81,1.18,0,3.63.65,4.06.65,1.36,0,2.2-.16,3.38-.16"/><path class="cls-2" d="M276.51,64.92a2.07,2.07,0,0,1-2.28,2.33h-2.8a2.16,2.16,0,0,1-2.19-2.33c0-1.38.68-2.22,1.94-2.22h3.22a2,2,0,0,1,2.11,2.22"/><path class="cls-2" d="M291.69,51.19a4.11,4.11,0,0,0-.93,2,2.59,2.59,0,0,0,.42,1.28c.26.4,1.61,1.2,1.61,1.93s-.51.64-1.61,1.6a4.68,4.68,0,0,0-1.61,3.45v8.25c0,3.69-.34,4.33-2,4.33s-2-.64-2-4.33l-.08-8.1a4.64,4.64,0,0,0-1.19-3.36c-.51-.64-1.52-1.13-1.52-1.77,0-.8.59-.8,1.52-1.92.42-.56.59-.92,1.86-4.09.43-1,1.44-2.52,4.74-2.52,1.86,0,2.45.52,2.45,1.4,0,.72.09.56-1.6,1.84"/><path class="cls-2" d="M303.45,72.92c3.22,0,5.93-2.25,5.93-5.13a3.51,3.51,0,0,0-3.81-3.37c-2.8,0-6.18,2.24-6.18,4.81a3.89,3.89,0,0,0,4.06,3.69M296,69.79c0-3.29,3.14-5.13,7-5.61s6.18-2,6.18-3.69a4.09,4.09,0,0,0-4.07-4.17h-.67c-2.46,0-3.56,2.41-5.42,2.41-.51,0-1,.08-1-.56,0-1.6,3.39-2.65,6.44-2.65,9,0,8.29,3.13,8.29,10.91v5.84c0,1-.5,1.61-1.52,1.61-.85,0-2.37-.56-3.72-.56-2.55,0-3.22,1.12-5.93,1.12-3,0-5.59-1.77-5.59-4.65"/><path class="cls-2" d="M320.63,50.64c-1.27,0-1.69-.4-1.69-1s.42-1,1.35-1,1.69.24,1.69,1c0,.65-.84,1-1.35,1m1.78,20.75c0,1.85-.59,2.81-1.78,2.81-1.86,0-2.12-.48-2.12-4.17V58.65c0-1.92.43-2.88,1.87-2.88,2,0,2,.87,2,4.32Z"/><path class="cls-2" d="M336.67,56c.67,0,1.43.07,1.43,1.28,0,1-.59,1.2-1.94,1.92a7.17,7.17,0,0,0-2.79,1.93,5.75,5.75,0,0,0-1.19,3.52v6.89c0,1.85-.59,2.73-1.69,2.73-2.2,0-2.54-.48-2.54-3.85V58.33c0-1.85.68-2.81,2.12-2.81,1.18,0,3.64.65,4.06.65,1.35,0,1.35-.16,2.54-.16"/><path class="cls-2" d="M349.53,64.1H351c2,0,4-1.44,4-3,0-2-1.7-3.93-4.74-3.93-3.22,0-5.16,1.61-5.16,3.69,0,1.93,1.94,3.29,4.48,3.29m7.54.56-5.34-.08c-5.25,0-7.11.88-7.11,3.61,0,2.41,2.79,4.73,5.67,4.73a5.56,5.56,0,0,0,3-.56l2.2-1.37c.43-.24.51-.56,1.36-.56,2.28,0-.17,4.09-6.77,4.09-5.59,0-9.31-3.61-9.31-9.22,0-5.93,3.22-9.78,9.31-9.78,7.28,0,8.88,5.62,8.88,7.7,0,1-.51,1.44-1.85,1.44"/><path class="cls-3" d="M164.92,107.93c1.82,1.83,8,2.26,19.57,2.26,2.89,0,4.86.76,4.86,2.27,0,1.83-1.67,2.8-4.86,2.8h-26c-2.89,0-4.4-1-4.4-3.66V85c0-2.26,1.67-3.34,4.55-3.34,3.35,0,4.71,1.18,4.71,3.34-.15,22.86-.15,21.17,1.52,22.9"/><path class="cls-3" d="M206.82,112.23c0,2-1.4,3-3.68,3-2,0-3.3-.43-3.3-5.39V85.3c0-1.83,1.47-2.9,3.49-2.9,2.43,0,3.49,1,3.49,5.26Z"/><path class="cls-3" d="M229.09,84.57,239,97.24c4,5.16,8.65,6.72,11.69,6.72,3.8,0,5.93-2.69,5.93-6V85c0-1.57.6-2.35,2-2.35,1.22,0,1.82,1.12,1.82,3.25v27.25c0,1.69-.91,2.58-2.89,2.58h-1.21a6.07,6.07,0,0,1-4.56-2L236.84,98.36c-1.68-2.13-4.1-3.81-6.38-3.81-4.11,0-6.23,2.24-6.23,6.16v12c0,1.57-.31,2.81-2,2.81-1.21,0-1.82-.79-1.82-3.25V85c0-1.68.76-2.58,2.28-2.58h2a4.81,4.81,0,0,1,4.41,2.14"/><path class="cls-3" d="M280.13,85.72v17.79c0,5.82,5,9.81,12.61,9.81s12.61-4,12.61-9.81V85.72c0-2.27.61-3.56,3.49-3.56,2.59,0,3.65.54,3.65,5.07v15.85c0,6.14-4.25,13.58-19.75,13.58-14.59,0-19.75-6.25-19.75-13.58V85.72c0-2,.76-3.45,2.43-3.45h2c1.83,0,2.74,1.18,2.74,3.45"/><path class="cls-3" d="M350.68,84c1.07-1.07,2.43-2,6.23-2,1.67,0,2.59.11,2.59,1.08s-.77,1.83-4.26,5.07c-6.54,6-7.29,7.54-7.29,9.49s1.51,3.56,2.43,4.53c11.85,12,12.15,11.85,12.15,12.82s-.76,1.19-2.89,1.19c-4.56,0-5.47-.54-10.64-6.57-3.64-4.31-5.76-5.39-7.74-5.39-3.65,0-5,.86-10.18,6.9-4.56,5.28-6.23,5.06-9.27,5.06-2,0-3-.43-3-1.19s2.13-2.47,4.72-5.17c-2.59,2.59,7.74-7.65,8.2-8.19a6.71,6.71,0,0,0,2-4c0-1.3-1.36-3.45-2.12-4.21l-8.36-8.3c-3-2.91-.15-3.13.91-3.13,5.17,0,5.47.22,10,5.39,2.28,2.59,4.25,3.78,6.53,3.78a7.39,7.39,0,0,0,5-1.83c1.53-1.41,3.34-3.67,5-5.29"/><path class="cls-3" d="M370.58,83.52a4.94,4.94,0,0,0-8.5,3.38A5,5,0,0,0,367,91.77a5,5,0,0,0,3.4-1.35,4.82,4.82,0,0,0,1.49-3.54A5,5,0,0,0,370.58,83.52Zm.57,3.47A4.17,4.17,0,0,1,367,91.24,3.92,3.92,0,0,1,364,90a4.67,4.67,0,0,1-1.18-3.2,4.13,4.13,0,0,1,4.2-4.23,3.87,3.87,0,0,1,2.92,1.3A4.64,4.64,0,0,1,371.15,87Z"/><path class="cls-3" d="M367.69,84.54h-1.51c-.88,0-1,.4-1,1.28v2.73c0,.16,0,.66.36.66s.3-.29.32-.49a.28.28,0,0,0,0-.09c.09-.52.35-.86.66-.86.47,0,.74.4,1.07,1s.38.5.52.5a.2.2,0,0,0,.22-.22,1.26,1.26,0,0,0-.12-.41A2,2,0,0,1,368,88a1.23,1.23,0,0,1,.46-1,1.46,1.46,0,0,0,.54-1.25A1.36,1.36,0,0,0,367.69,84.54ZM368,86c0,.51-.43.86-1.06.86A.9.9,0,0,1,366,86a1,1,0,0,1,1-.89A1,1,0,0,1,368,86Z"/><path class="cls-3" d="M88.15,34.62A47.49,47.49,0,1,0,131.41,86,47.49,47.49,0,0,0,88.15,34.62"/><path class="cls-4" d="M120.05,96.37c-1.08,1.24-6.65-5.69-10-6.7-4-1.22-8.68-3.27-12.12-4.7a62.18,62.18,0,0,1,1.37,12.76C99.26,107,95.94,117.8,85.7,117.8S70,109.4,71.54,100.22c.82-4.9,2.44-10.9,2.27-11a17.61,17.61,0,0,0-3-.15c-1.81.07-2.92.58-5.2.83a24.94,24.94,0,0,0-8,2.77c-3.54,1.73-7,7.27-8.09,5.56-1.59-2.5,3.92-13,10.55-17.63,6-4.15,9.58-6.18,11.06-7.43s3-2.59,3.41-4.2a9.14,9.14,0,0,0-.68-4c-.32-1-1.53-2.91-2.44-5.46a8.41,8.41,0,0,1,2.14-8.4c2.37-2.48,8-2.64,11.25-2.57s1.8-.25,4.47-.72a7.16,7.16,0,0,1,5.28.77,1.38,1.38,0,0,1-.56,1.28c-.61.36-1.54,1.13-2.95,2s-3,2.87-4.42,4.42a5.77,5.77,0,0,0-1.28,5.26c.36,1.36,2.32,3,3.53,4.43,1.76,1.51,3.63,3,3.63,3a107.53,107.53,0,0,1,11,6.81c14.56,10.2,18.92,17.78,16.44,20.64"/></svg>