<?xml version="1.0" encoding="UTF-8"?>
<svg xmlns="http://www.w3.org/2000/svg" xmlns:xlink="http://www.w3.org/1999/xlink" width="201.7454" height="62.0758">
	<rect x="0" y="0" width="100%" height="100%" fill="#ffa500"/>
	<path d="m36.5353,15.5210 c0,0 3.8062,3.8054 5.5558,5.7676 v1.489 c-1.6308,-1.7246 -5.0125,-3.168 -8.1562,-3.168 -7.116,0 -11.584,5.3672 -11.584,12.0098 0,6.6184 4.2316,11.9856 11.584,11.9856 3.664,0 6.5953,-1.727 8.2265,-3.4993 v1.4168 c-2.2226,3.0508 -6.2882,5.0364 -11.3468,5.0364 -9.0547,0 -15.2957,-6.5711 -15.2957,-14.9395 0,-8.3691 6.9265,-14.9172 15.2957,-14.9172 2.1281,0 4.0425,0.3547 5.7207,0.9465z"/>
	<path d="m32.4216,31.5725 c0,-4.8234 0.4492,-6.9511 2.0805,-6.9511 1.6316,0 2.08,2.1277 2.08,6.9511 0,4.8223 -0.4484,6.9485 -2.08,6.9485 -1.6313,0 -2.0805,-2.1262 -2.0805,-6.9485 m-5.8629,0.0469 c0,4.7754 2.9312,8.6516 7.9434,8.6516 5.0113,0 7.9429,-3.8762 7.9429,-8.6516 0,-4.7754 -2.9316,-8.6523 -7.9429,-8.6523 -5.0122,0 -7.9434,3.8769 -7.9434,8.6523"/>
	<path d="m53.6271,28.6878 c0,-1.418 -0.4493,-2.5293 -1.6782,-2.5293 -1.2297,0 -1.7261,1.1113 -1.7261,2.5293 v9.3371 h1.4421 v1.4898 h-7.8957 v-1.4898 h1.4661 v-12.8598 h-1.4661 v-1.4414 h6.2176 v2.4106 h0.0703 c0.5914,-1.3235 1.9625,-2.718 4.1614,-2.718 2.3168,0 3.7351,1.418 4.1843,3.2851 0.1653,0.7332 0.2125,1.9395 0.2125,2.5528 v8.7707 h1.8907 v1.4898 h-6.8789z"/>
	<path d="m67.1974,25.1651 v11.6789 c0,0.8028 0.5195,0.9922 1.0164,0.9922 0.4722,0 0.9219,-0.1648 0.9219,-0.1648 v1.4414 c0,0 -0.9458,0.5906 -3.0497,0.5906 -2.4589,0 -3.9011,-1.2063 -3.9011,-3.7578 v-10.7805 h-1.6789 v-1.0633 c1.8687,-1.489 4.0441,-3.1914 5.7691,-4.6328 h0.9223 v4.2547 h1.9383 v1.4414z"/>
	<path d="m71.5118,19.5386 c0,3.1 6.1,3.1 6.1,0 s-6.1,-3.1 -6.1,0 m0.5207,5.6265 h-1.4429 v-1.4414 h6.4304 v14.3012 h1.466 v1.4898 h-7.8964 v-1.4898 h1.4429z"/>
	<path d="m89.6087,28.6878 c0,-1.418 -0.4493,-2.5293 -1.6782,-2.5293 -1.2297,0 -1.7261,1.1113 -1.7261,2.5293 v9.3371 h1.4421 v1.4898 h-7.8957 v-1.4898 h1.4661 v-12.8598 h-1.4661 v-1.4414 h6.2176 v2.4106 h0.0703 c0.5914,-1.3235 1.9625,-2.718 4.1614,-2.718 2.3168,0 3.7351,1.418 4.1843,3.2851 0.1653,0.7332 0.2125,1.9395 0.2125,2.5528 v8.7707 h1.8907 v1.4898 h-6.8789z"/>
	<path d="m109.348,35.3069 c-0.71,0.8274 -1.821,1.4649 -3.475,1.4649 -1.443,0 -3.665,-0.8036 -3.759,-4.4668 h8.439 c0.024,-0.284 0.047,-0.8516 0.047,-1.136 0,-4.4429 -1.819,-7.7527 -6.571,-7.7527 -4.7758,0 -7.2109,3.6648 -7.2109,8.2266 0,4.5625 2.4351,8.155 7.2109,8.155 3.073,0 5.012,-1.4414 6.146,-3.7105z m-7.234,-4.5398 c0,-4.1606 0.331,-5.72 1.749,-5.72 1.442,0 1.726,1.5137 1.773,5.72z"/>
	<path d="m121.4984,28.6878 c0,-1.418 -0.4493,-2.5293 -1.6782,-2.5293 -1.2297,0 -1.7261,1.1113 -1.7261,2.5293 v9.3371 h1.4421 v1.4898 h-7.8957 v-1.4898 h1.4661 v-12.8598 h-1.4661 v-1.4414 h6.2176 v2.4106 h0.0703 c0.5914,-1.3235 1.9625,-2.718 4.1614,-2.718 2.3168,0 3.7351,1.418 4.1843,3.2851 0.1653,0.7332 0.2125,1.9395 0.2125,2.5528 v8.7707 h1.8907 v1.4898 h-6.8789z"/>
	<path d="m135.0684,25.1651 v11.6789 c0,0.8028 0.5195,0.9922 1.0164,0.9922 0.4722,0 0.9219,-0.1648 0.9219,-0.1648 v1.4414 c0,0 -0.9458,0.5906 -3.0497,0.5906 -2.4589,0 -3.9011,-1.2063 -3.9011,-3.7578 v-10.7805 h-1.6789 v-1.0633 c1.8687,-1.489 4.0441,-3.1914 5.7691,-4.6328 h0.9223 v4.2547 h1.9383 v1.4414z"/>
	<path d="m146.084,31.6897 c-0.141,-0.1418 -0.449,-0.3301 -1.087,-0.3301 -1.489,0 -1.82,1.4661 -1.82,2.9786 0,1.489 0.449,2.6941 1.726,2.6941 0.614,0 0.992,-0.2605 1.181,-0.4727z m0.214,5.9324 -0.072,0 c-0.921,1.302 -2.151,2.1758 -4.042,2.1758 -2.577,0 -4.185,-2.1992 -4.185,-4.823 0,-3.166 2.247,-5.177 5.84,-5.177 1.466,0 2.245,0.3332 2.245,0.3332 v-0.9941 c0,-1.9149 -1.181,-2.9316 -2.907,-2.9316 -2.388,0 -3.617,1.8449 -3.617,1.8449 l-0.874,-1.0637 c1.583,-2.459 4.017,-3.5703 6.287,-3.5703 3.831,0 6.1,2.2695 6.1,5.7207 v8.8879 h1.607 v1.4898 h-6.382z"/>
	<path d="m154.429,19.3264 h-1.725 v-1.4414 h6.714 v20.1399 h1.938 v1.4898 h-6.927z"/>
	<path d="m181.498,29.4917 c-0.142,-0.5434 -0.354,-1.1582 -0.52,-1.4653 0,0 0.095,-0.0945 0.284,0.0239 0.189,0.1179 1.395,0.9453 1.395,0.9453 0.614,0.898 0.992,4.5855 1.016,5.9101 -0.567,-0.2609 -1.371,-0.7101 -1.891,-1.2062z"/>
	<path d="m177.858,26.0647 c-0.993,-1.0879 -1.821,-2.1047 -2.624,-3.3093 0.519,-0.9934 0.898,-3.6165 0.661,-4.6333 -0.094,-0.3082 -0.945,-1.4421 -1.087,-1.6074 -0.213,-0.2136 -0.898,-0.9929 -1.229,-0.9929 -0.071,0 -0.142,0.0234 -0.166,0.0468 l0.095,0.875 c-0.922,0.591 -2.128,1.3946 -3.215,2.1985 0,0.3062 0.023,0.7793 0.047,0.9453 0.165,0.1414 0.355,0.2597 0.567,0.3308 0.426,-0.0711 1.75,-0.4023 2.104,-0.3543 l-1.3,1.9618 -1.49,1.0632 -1.867,-0.5906 c-0.118,-0.0234 -0.236,0 -0.307,0.0949 l-1.371,1.4891 c-0.071,0.0703 -0.119,0.1414 -0.119,0.3074 l-0.047,1.6782 c0,0 -0.023,0.2593 -0.023,0.5437 0,1.2051 0.544,1.7727 0.544,1.7727 l0.898,-1.3 c-0.119,-0.1883 -0.331,-0.709 -0.378,-0.9454 0,-0.0476 0.023,-1.4421 0.023,-1.4421 l0.875,-0.6387 2.316,1.6316 c0,0 0.639,1.1817 1.253,1.8914 0.402,0.4961 2.411,1.843 3.381,2.4106 0.094,0.5203 0.307,1.3719 0.473,1.8199 l2.837,2.9082 -1.679,2.1035 c-0.591,0.3781 -1.158,1.0649 -1.111,1.7024 l1.939,0 0.212,-1.1114 2.317,-2.5761 c0.118,-0.1426 0.118,-0.2129 0.047,-0.4258 l-0.662,-2.2219 c0.332,-0.3789 1.04,-1.323 1.04,-2.459 0,-2.0562 -2.245,-2.5758 -2.954,-3.1668z"/>
	<path d="m167.408,21.8335 c-0.07,0.023 -1.796,0.4961 -1.796,0.4961 0,0 -0.804,0.3062 -1.159,0.5437 -0.354,0.2356 -0.756,0.6375 -0.78,0.8504 l1.537,0.3547 c0.237,-0.2598 0.496,-0.5438 0.733,-0.7324 l0.355,-0.166 1.276,-1.2996 c0,0 -0.047,-0.0708 -0.166,-0.0469z"/>
	<path d="m174.666,35.1175 2.175,-2.0801 0.899,0.8984 -2.341,1.9863 c-0.189,0.2352 -0.331,0.6141 -0.449,0.8504 l-1.726,0 c0.095,-0.6382 0.993,-1.4414 1.442,-1.655z"/>
	<path d="m163.129,39.5147 v-0.7566 h23.097 v0.7566z"/>
</svg>
