<?xml version="1.0" encoding="UTF-8" standalone="no"?>
<svg
   xmlns:dc="http://purl.org/dc/elements/1.1/"
   xmlns:cc="http://creativecommons.org/ns#"
   xmlns:rdf="http://www.w3.org/1999/02/22-rdf-syntax-ns#"
   xmlns:svg="http://www.w3.org/2000/svg"
   xmlns="http://www.w3.org/2000/svg"
   xmlns:sodipodi="http://sodipodi.sourceforge.net/DTD/sodipodi-0.dtd"
   xmlns:inkscape="http://www.inkscape.org/namespaces/inkscape"
   version="1.1"
   x="0"
   y="0"
   width="576.536"
   height="576.536"
   viewBox="0, 0, 576.536, 576.536"
   id="svg868"
   sodipodi:docname="lochamesh-logo.svg"
   inkscape:version="1.0.2 (e86c870879, 2021-01-15)">
  <metadata
     id="metadata874">
    <rdf:RDF>
      <cc:Work
         rdf:about="">
        <dc:format>image/svg+xml</dc:format>
        <dc:type
           rdf:resource="http://purl.org/dc/dcmitype/StillImage" />
      </cc:Work>
    </rdf:RDF>
  </metadata>
  <defs
     id="defs872" />
  <sodipodi:namedview
     pagecolor="#ffffff"
     bordercolor="#666666"
     borderopacity="1"
     objecttolerance="10"
     gridtolerance="10"
     guidetolerance="10"
     inkscape:pageopacity="0"
     inkscape:pageshadow="2"
     inkscape:window-width="2560"
     inkscape:window-height="1416"
     id="namedview870"
     showgrid="false"
     inkscape:zoom="1.4877137"
     inkscape:cx="227.40696"
     inkscape:cy="293.8924"
     inkscape:window-x="0"
     inkscape:window-y="695"
     inkscape:window-maximized="0"
     inkscape:current-layer="svg868" />
  <g
     id="Capa_2"
     transform="matrix(0.55,0,0,0.55,129.7206,129.7206)"
     style="stroke-width:1.81818">
    <g
       id="g865"
       style="stroke-width:1.81818">
      <path
         d="m 553.876,176.056 c 15.036,35.549 22.66,73.303 22.66,112.211 0,71.906 -26.629,140.777 -74.981,193.925 -48.019,52.784 -113.405,85.77 -184.093,92.879 -0.488,0.05 -0.976,0.092 -1.464,0.133 -0.234,0.019 -0.466,0.039 -0.694,0.059 -9.067,0.845 -18.163,1.273 -27.035,1.273 -32.333,0 -64.083,-5.321 -94.371,-15.816 -29.27,-10.142 -56.614,-24.906 -81.271,-43.88 C 96.1,504.123 80.917,489.579 67.502,473.614 61.17,466.082 55.19,458.188 49.726,450.153 37.825,432.647 27.861,413.836 20.111,394.241 6.767,360.499 0,324.844 0,288.267 0,249.359 7.624,211.605 22.66,176.056 37.18,141.727 57.963,110.901 84.432,84.432 110.9,57.963 141.728,37.18 176.056,22.66 211.606,7.624 249.36,0 288.269,0 c 38.908,0 76.661,7.624 112.21,22.66 34.329,14.52 65.155,35.303 91.624,61.772 26.469,26.469 47.252,57.295 61.773,91.624"
         fill="#fefefe"
         id="path853"
         style="stroke-width:1.81818" />
      <path
         d="m 303.122,238.685 c 0.004,0.029 0.01,0.058 0.013,0.087 0.31,3.165 -1.626,5.928 -4.351,6.165 -2.748,0.241 -5.239,-2.175 -5.543,-5.39 -0.303,-3.206 1.689,-5.953 4.428,-6.144 0.181,-0.013 0.36,-0.012 0.538,-0.002 -1.63,-0.907 -3.459,-1.373 -5.36,-1.245 -5.936,0.398 -10.322,6.331 -9.695,13.28 0.63,6.99 6.069,12.167 12.044,11.539 5.869,-0.617 10.006,-6.617 9.335,-13.379 -0.176,-1.775 -0.674,-3.432 -1.409,-4.911"
         fill="#292929"
         id="path855"
         style="stroke-width:3.30579" />
      <path
         d="m 193.476,64.096 c -1.53,-0.387 -11.656,-2.65 -12.877,-2.967 -1.125,-0.293 -2.147,-0.639 -2.147,-0.948 0,-0.324 0.359,-0.516 0.847,-0.624 0.849,-0.188 7.133,0.724 9.683,1.286 15.665,3.451 36.373,10.934 50.744,18.916 13.281,7.376 25.536,14.942 37.369,23.666 3.104,2.288 12.612,10.066 11.989,10.115 -0.156,0.012 -11.013,-8.231 -15.434,-11.163 -3.062,-2.03 -6.56,-4.354 -9.634,-6.316 -8.411,-5.368 -16.108,-10.091 -26.468,-15.694 -5.468,-2.958 -10.978,-5.345 -16.36,-7.479 -9.275,-3.68 -18.376,-6.434 -27.712,-8.792 m 1.508,113.955 c -2.053,1.467 -4.076,3.021 -6.106,4.517 -0.502,0.371 -1.005,0.741 -1.509,1.102 -0.723,0.517 -4.838,3.264 -3.691,2.129 3.019,-2.992 6.271,-5.932 9.837,-8.26 0.456,-0.297 1.184,-0.631 1.814,-0.846 1.241,-0.425 2.091,-0.383 -0.345,1.358 m 27.974,-18.572 c 2.817,-1.849 5.683,-3.605 8.576,-5.311 11.317,-6.675 23.18,-12.314 35.416,-17.189 4.71,-1.877 9.449,-3.712 14.242,-5.381 1.325,-0.461 2.653,-0.916 3.988,-1.349 1.986,-0.644 4.06,-1.367 6.173,-2.066 3.036,-1.005 6.156,-1.958 9.238,-2.537 1.698,-0.319 3.493,-0.385 4.022,-0.146 0.326,0.148 0.172,0.412 -0.793,0.807 -1.308,0.536 -3.606,1.185 -6.262,2.001 -5.315,1.634 -11.243,3.332 -16.222,5.033 -6.083,2.078 -8.344,3.028 -14.677,5.419 -15.706,5.93 -26.057,11.629 -40.281,19.264 -1.425,0.765 -4.761,2.336 -3.42,1.455 m 90.999,-33.765 c 0.444,-0.266 1.158,0.086 1.665,0.482 0.376,0.293 0.74,0.583 1.096,0.871 6.034,4.878 9.529,9.259 15.677,16.674 0.961,1.159 3.564,4.432 5.288,6.789 1.017,1.39 1.265,1.822 1.614,2.593 0.137,0.3 -1.436,-1.242 -2.29,-2.277 -1.16,-1.408 -7.704,-8.643 -9.263,-10.3 -3.347,-3.557 -6.605,-6.963 -9.962,-10.278 -0.713,-0.704 -3.63,-3.383 -3.882,-4.289 -0.035,-0.124 -0.022,-0.217 0.057,-0.265 m 90.351,24.525 c -14.51,0.442 -28.644,2.746 -42.601,6.003 -3.361,0.785 -6.712,1.626 -10.055,2.51 -0.223,0.058 -0.445,0.117 -0.666,0.176 -1.474,0.392 -2.946,0.792 -4.416,1.199 -5.101,1.412 -10.187,2.906 -15.268,4.446 -17.965,5.445 -35.357,11.876 -52.6,19.236 -22.502,9.606 -44.695,19.732 -66.297,31.197 2.838,-2.545 6.286,-4.881 9.35,-6.924 12.594,-8.396 43.325,-23.333 48.869,-25.817 23.669,-10.603 48.347,-19.795 72.796,-27.094 0.847,-0.253 1.695,-0.506 2.541,-0.755 0.855,-0.25 1.709,-0.494 2.563,-0.74 -3.582,-5.481 -7.598,-10.692 -11.846,-15.561 -4.036,-4.627 -8.992,-10.526 -14.685,-14.193 -1.913,-1.233 -3.909,-2.214 -5.981,-2.809 -2.684,-0.772 -5.518,-1.005 -8.378,-0.914 -1.428,0.045 -2.86,0.172 -4.285,0.355 -0.813,0.105 -1.624,0.225 -2.428,0.362 -2.208,0.374 -4.374,0.849 -6.439,1.329 -12.235,2.847 -24.833,7.321 -36.425,12.041 -16.84,6.858 -25.233,12.531 -38.435,20.139 -0.667,0.386 -1.349,0.77 -2.027,1.154 8.418,-9.378 39.033,-24.515 51.059,-29.16 8.119,-3.137 19.168,-6.592 28.337,-8.654 1.247,-0.28 2.46,-0.536 3.625,-0.761 0.002,0 0.003,0 0.005,-0.001 0.958,-0.184 1.925,-0.341 2.899,-0.471 -4.745,-3.975 -9.895,-7.56 -14.618,-11.078 -12.528,-9.33 -25.346,-18.277 -38.684,-26.416 -12.021,-7.335 -24.633,-13.487 -37.909,-18.222 -12.979,-4.629 -22.363,-7.598 -35.721,-7.581 -12.689,0.015 -16.899,2.411 -27.494,10.807 -11.236,8.904 -22.505,22.527 -31.49,35.936 -7.425,11.083 -10.164,22.868 -11.731,35.215 -1.036,8.166 0.354,19.264 1.291,22.53 0.562,1.959 1.997,3.403 3.645,3.403 0.892,0 1.741,-1.081 2.469,-2.446 0.962,-1.804 3.742,-9.115 4.54,-10.825 3.61,-7.741 3.899,-9.067 6.474,-12.14 2.929,-3.494 13.075,-11.657 21.963,-16.855 0.81,-0.474 2.464,-1.149 4.078,-1.581 0.143,-2.373 0.565,-4.823 0.866,-6.647 0.045,-0.273 0.095,-0.544 0.142,-0.816 0.154,-0.877 0.319,-1.745 0.495,-2.601 1.3,-6.296 3.17,-11.794 4.738,-13.321 -0.93,3.09 -1.773,7.184 -2.412,11.956 -0.14,1.039 -0.268,2.113 -0.387,3.213 -0.257,2.385 -0.465,4.895 -0.605,7.513 -0.005,0.083 -0.007,0.184 -0.008,0.293 -0.009,0.681 0.059,1.787 0.398,2.257 0.867,1.201 2.549,1.846 3.391,1.846 0.834,0 1.77,-0.195 2.768,-0.522 5.54,-1.814 13.163,-8.064 18.186,-12.394 -1.669,3.131 -5.35,7.862 -9.259,11.133 -1.954,1.636 -4.033,3.161 -6.097,4.33 2.289,2.97 4.419,8.848 6.249,13.293 2.538,6.164 4.575,12.436 5.992,17.279 2.272,7.761 3.994,16.505 4.427,25.101 1.561,-1.313 3.385,-2.648 5.518,-4.142 2.98,-2.087 6.879,-4.184 10.218,-5.699 -1.286,0.933 -2.563,1.896 -3.825,2.91 -4.079,3.277 -8.503,6.875 -11.812,11.204 -0.991,1.298 -1.888,2.658 -2.639,4.098 -1.086,2.082 -1.612,4.846 -1.951,7.135 -0.242,1.637 -0.418,3.566 -0.536,5.695 -0.517,9.35 0.114,22.586 1.401,32.276 0.705,-0.416 1.455,-0.856 2.292,-1.344 0.451,-0.264 0.934,-0.534 1.434,-0.809 0.4,-0.219 0.809,-0.44 1.235,-0.664 5.673,-2.979 13.402,-6.216 17.309,-6.842 -5.387,3.101 -10.969,6.467 -16.584,10.01 -0.609,0.385 -1.217,0.765 -1.826,1.154 -1.106,0.704 -2.211,1.42 -3.316,2.137 -3.444,2.235 -6.878,4.523 -10.267,6.855 -10.986,7.557 -21.486,15.522 -30.176,23.255 -5.525,4.917 -24.673,23.497 -30.288,34.134 -2.584,4.896 -5.213,9.775 -3.834,13.916 1.789,5.375 24.926,0.497 32.838,-1.693 18.365,-5.08 37.088,-11.932 52.13,-19.503 0.126,-2.635 0.208,-5.336 0.257,-8.05 0.01,-0.535 0.016,-1.07 0.023,-1.605 0.081,-5.974 0.02,-11.946 -0.044,-17.335 -0.422,0.274 -0.851,0.552 -1.294,0.838 -5.652,3.643 -12.996,8.946 -11.625,6.949 0.557,-0.81 8.563,-7.87 14.12,-11.761 0.99,-0.693 2.035,-1.42 3.109,-2.164 1.151,-0.797 2.343,-1.617 3.565,-2.454 8.423,-5.764 18.213,-12.231 25.062,-16.255 10.368,-6.089 20.823,-12.032 31.614,-17.314 16.423,-8.037 33.208,-15.864 50.469,-21.943 6.719,-2.366 13.481,-4.612 20.266,-6.789 1.823,-0.585 3.645,-1.174 5.472,-1.748 2.842,-0.895 5.69,-1.777 8.541,-2.649 2.575,-0.788 16.2,-4.163 18.587,-3.76 1.91,0.323 -4.176,2.335 -5.89,2.923 -4.095,1.404 -8.567,2.891 -12.898,4.316 9.231,5.439 20.152,12.009 29.662,18.184 0.991,0.644 1.969,1.284 2.926,1.917 0.71,0.471 1.411,0.938 2.099,1.4 10.397,-4.592 20.185,-11.163 29.691,-17.017 10.059,-6.194 19.903,-14.083 27.575,-23.223 5.317,-6.335 11.311,-15.995 7.738,-21.758 -2.428,-3.914 -23.835,-3.964 -31.255,-3.738"
         fill="#292929"
         id="path857"
         style="stroke-width:3.30579" />
      <path
         d="m 178.077,348.123 c 3.081,0.203 5.532,0.517 6.781,0.749 3.126,0.581 5.764,1.159 7.584,1.806 3.635,1.291 4.226,2.121 4.453,2.362 0.151,0.159 0.304,0.31 0.447,0.489 0.568,0.717 0.964,1.666 1.22,2.456 0.23,0.711 0.349,1.294 0.368,1.446 2.444,20.103 0.464,41.08 -6.276,60.41 -7.699,22.074 -17.821,42.248 -27.905,56.672 -6.474,9.257 -18.084,25.222 -23.316,22.543 -2.1,-1.077 -3.093,-5.545 -2.516,-12.168 -4.763,6.48 -10.778,13.552 -16.533,19.271 45.931,35.346 103.447,56.377 165.885,56.377 8.618,0 17.138,-0.42 25.552,-1.203 -0.874,-0.139 -1.859,-0.83 -2.432,-1.555 -3.353,-4.24 -3.958,-17.025 -1.955,-38.677 -3.008,4.793 -6.712,10.105 -10.49,14.21 -4.499,4.889 -9.097,8.065 -12.726,6.6 -2.172,-0.877 -3.256,-4.031 -3.893,-6.883 -1.837,-8.217 -1.846,-14.515 -1.837,-19.691 0.006,-3.676 0.43,-9.24 1.063,-15.051 -3.45,7.768 -8.072,15.576 -14.395,17.705 -1.763,0.594 -3.014,0.498 -3.924,-0.047 -2.28,-1.361 -5.28,-7.717 -2.803,-24.414 1.232,-8.308 2.411,-14.949 4.384,-21.402 -1.896,3.004 -3.91,5.73 -5.908,7.781 -4.156,4.266 -7.899,1.195 -8.291,-4.41 -0.482,-6.873 1.866,-19.043 4.628,-30.264 -0.444,0.516 -0.909,1.037 -1.397,1.565 -2.414,2.601 -7.356,5.57 -9.539,3.756 -2.801,-2.33 -3.051,-6.483 -1.14,-20.881 1.013,-7.627 2.408,-14.578 3.953,-21.133 -1.354,1.959 -2.924,3.801 -4.816,5.303 -3.479,2.763 -5.791,2.084 -6.401,-2.805 -0.158,-1.26 -0.145,-3.207 -0.033,-5.434 0.07,-1.384 0.605,-5.925 1.115,-10.158 0.281,-2.344 1.047,-10.515 1.016,-13.205 -0.027,-2.451 -0.155,-5.088 -0.371,-7.652 -2.164,4.14 -4.993,6.855 -7.312,3.855 -3.11,-4.023 -2.95,-13.062 -7.396,-20.438 -3.844,-6.377 -7.447,-8.561 -16.37,-10.504 -4.492,-0.979 -13.265,-2.166 -22.679,-1.502 -0.849,1.336 -2.091,3.067 -5.795,4.121"
         fill="#f69634"
         id="path859"
         style="stroke-width:1.81818" />
      <path
         d="m 295.196,256.975 c -5.976,0.628 -11.414,-4.549 -12.044,-11.539 -0.627,-6.948 3.759,-12.881 9.694,-13.28 1.902,-0.127 3.731,0.339 5.361,1.246 2.469,0.136 4.591,2.381 4.915,5.284 0.735,1.477 1.233,3.136 1.409,4.91 0.671,6.763 -3.466,12.762 -9.335,13.379 m 19.234,-11.496 c -0.939,-7.4 -5.007,-13.413 -9.862,-16.611 -1.875,-1.235 -6.007,-3.46 -10.922,-3.873 -0.487,-0.041 -0.98,-0.067 -1.481,-0.069 -0.17,-0.002 -0.341,0.002 -0.512,0.006 -0.123,0.002 -0.246,0.004 -0.37,0.009 -0.204,0.008 -0.41,0.024 -0.615,0.041 -0.114,0.01 -0.226,0.015 -0.339,0.026 -0.244,0.025 -0.49,0.058 -0.737,0.092 -0.076,0.011 -0.151,0.018 -0.227,0.03 -0.324,0.052 -0.649,0.112 -0.976,0.184 -0.06,0.013 -0.122,0.03 -0.182,0.045 -0.265,0.06 -0.53,0.125 -0.795,0.2 -0.112,0.033 -0.223,0.071 -0.334,0.104 -0.215,0.067 -0.431,0.133 -0.647,0.209 -0.129,0.047 -0.256,0.099 -0.384,0.148 -0.201,0.076 -0.4,0.153 -0.6,0.238 -0.136,0.058 -0.272,0.122 -0.408,0.185 -0.193,0.088 -0.385,0.177 -0.577,0.274 -0.14,0.071 -0.28,0.146 -0.419,0.222 -0.189,0.101 -0.377,0.206 -0.566,0.319 -0.141,0.082 -0.282,0.168 -0.423,0.256 -0.186,0.118 -0.373,0.239 -0.559,0.366 -0.141,0.097 -0.282,0.194 -0.424,0.294 -0.185,0.135 -0.37,0.275 -0.554,0.418 -0.14,0.109 -0.28,0.217 -0.419,0.331 -0.186,0.153 -0.372,0.315 -0.557,0.479 -0.135,0.118 -0.271,0.235 -0.406,0.358 -0.192,0.179 -0.382,0.37 -0.574,0.56 -0.125,0.125 -0.252,0.246 -0.377,0.375 -0.209,0.218 -0.416,0.451 -0.623,0.683 -0.104,0.119 -0.21,0.229 -0.314,0.351 -0.31,0.361 -0.617,0.738 -0.922,1.136 -1.923,2.509 -2.772,6.033 -3.349,9.705 -1.275,8.114 3.973,19.754 11.278,23.037 6.717,-1.531 16.558,-1.804 23.15,-0.904 1.863,-1.82 3.443,-4.131 4.377,-6.258 2.697,-6.144 1.93,-10.761 1.649,-12.966"
         fill="#f69634"
         id="path861"
         style="stroke-width:1.81818" />
      <path
         d="m 369.691,232.156 c 0.496,-0.385 2.737,-0.563 5.594,-0.605 6.381,-0.094 15.84,0.499 15.834,1.024 -0.005,0.456 -2.923,1.146 -3.873,1.448 -4.695,1.492 -6.529,2.282 -9.301,3.406 -1.741,0.706 -3.796,1.634 -5.274,1.409 -0.239,-0.036 -0.449,-0.136 -0.658,-0.314 -0.31,-0.263 -0.622,-0.703 -1.033,-1.404 -1.059,-1.806 -2.221,-4.241 -1.289,-4.964 m -53.849,326.997 c 0.508,-0.131 1.101,-0.32 1.8,-0.629 0.623,-0.273 1.236,-0.609 1.811,-0.996 1.58,-1.062 2.9,-2.422 3.666,-3.107 10.183,-9.123 22.639,-30.078 33.216,-67.459 1.51,3.365 3.1,6.285 4.464,8.138 3.224,4.377 6.531,5.77 8.502,3.012 2.155,-3.012 -0.304,-17.353 -0.456,-23.848 -0.176,-7.58 -0.272,-16.117 -0.045,-24.377 4.277,7.813 8.453,11.196 12.079,11.694 3.274,0.449 4.056,-1.619 3.917,-4.133 l 0.018,-0.006 c -0.008,-0.027 -0.016,-0.053 -0.023,-0.08 -0.17,-2.691 -1.37,-5.865 -1.701,-7.006 -2.798,-9.637 -4.858,-18.691 -6.437,-27.56 -0.152,-1.176 -0.294,-2.36 -0.425,-3.549 -0.458,-4.176 -1.192,-8.319 -1.97,-12.455 -0.833,-6.76 -1.47,-13.549 -2.019,-20.547 -2.35,-29.955 -0.614,-47.855 1.381,-70.667 13.827,-14.652 32.786,-30.947 45.665,-39.094 18.394,-11.635 45.985,-23.574 65.492,-27.378 1.779,-0.346 6.586,-1.404 11.727,-2.481 5.14,-1.078 22.096,-4.034 24.432,-4.496 12.683,-2.51 18.526,-4.475 21.252,-6.362 0.398,-0.339 0.606,-0.931 -0.053,-0.965 -0.996,-0.05 -1.9,0.022 -2.32,0.027 -12.475,0.144 -30.733,1.057 -50.952,3.298 -6.512,0.721 -20.187,2.981 -23.779,3.599 -13.133,2.259 -18.983,3.569 -26.586,5.514 -4.852,1.241 -8.426,2.682 -9.598,3.113 -14.496,5.337 -25.339,17.18 -35.458,28.495 -9.762,10.918 -19.215,22.945 -30.289,32.688 -0.18,0.172 -0.365,0.339 -0.548,0.51 l -0.029,-0.003 c -0.984,0.853 -1.975,1.695 -2.986,2.509 -2.639,2.128 -5.555,4.106 -8.674,5.581 -3.347,1.583 -6.927,2.585 -10.658,2.547 -6.037,-0.059 -11.287,-6.146 -13.578,-11.179 -4.249,-9.336 -8.631,-26.685 -10.172,-39.253 0.197,0.183 0.402,0.353 0.605,0.527 0.64,0.547 1.301,1.042 1.956,1.485 1.76,1.192 3.437,2.016 4.286,2.437 9.067,4.504 17.673,4.123 25.789,1.694 9.273,-2.773 17.907,-8.219 25.863,-12.115 17.074,-8.358 33.96,-15.339 52.431,-20.011 1.155,-0.292 2.314,-0.573 3.471,-0.861 0.066,-0.019 0.132,-0.042 0.198,-0.06 0.055,-0.016 0.104,-0.016 0.156,-0.028 20.46,-5.085 40.25,-8.101 61.123,-11.018 4.151,-0.58 8.446,-1.139 12.812,-1.65 1.616,-0.225 2.997,-0.375 4.219,-0.473 4.395,-0.473 8.839,-0.888 13.269,-1.204 5.951,-0.423 14.114,-1.205 20.32,-2.306 1.206,-0.246 2.205,-0.48 2.812,-0.682 2.222,-0.74 3.389,-1.943 3.396,-2.482 0.014,-0.967 -2.712,-2.099 -4.136,-2.439 -16.593,-3.963 -34.256,-5.929 -45.164,-6.775 -18.006,-1.396 -35.077,-1.997 -49.185,-2.35 -5.863,-0.146 -18.567,-0.722 -35.007,0.433 -15.128,1.064 -33.817,3.379 -46.094,6.097 -0.002,-0.001 -0.004,-0.002 -0.006,-0.004 -0.046,0.012 -0.088,0.023 -0.131,0.034 -0.091,0.023 -0.18,0.046 -0.254,0.064 -0.003,-0.002 -0.006,-0.004 -0.009,-0.006 -1.05,-0.784 -2.132,-1.564 -3.228,-2.342 -0.116,-0.082 -0.232,-0.164 -0.348,-0.246 -0.875,-0.619 -1.761,-1.234 -2.659,-1.848 -0.823,-0.562 -1.655,-1.122 -2.495,-1.68 -3.855,-2.559 -7.875,-5.078 -11.929,-7.538 -6.116,-3.71 -12.293,-7.286 -18.06,-10.667 -1.328,0.435 -2.616,0.857 -3.849,1.26 -0.504,0.165 -1,0.328 -1.485,0.487 -1.339,0.44 -2.59,0.851 -3.744,1.233 -0.867,0.288 -1.686,0.56 -2.422,0.808 -22.649,7.622 -44.321,16.788 -65.925,27.52 -16.726,8.308 -32.278,17.126 -48.68,27.251 -3.067,1.894 -5.65,3.581 -8.32,5.35 -1.149,0.761 -2.318,1.538 -3.545,2.354 -0.482,0.319 -0.972,0.644 -1.475,0.977 -0.027,5.989 0.042,11.981 0.058,17.972 0.005,1.737 -0.001,3.475 -0.011,5.212 -0.008,1.417 -0.026,2.834 -0.05,4.25 -0.07,4.226 -0.226,8.449 -0.511,12.668 -0.059,0.872 -0.102,1.744 -0.173,2.615 -0.904,11.076 -2.449,22.262 -4.862,33.259 -0.124,0.565 -0.554,2.349 -1.285,3.851 -0.127,0.26 -0.258,0.496 -0.357,0.701 9.414,-0.664 18.187,0.523 22.678,1.502 8.923,1.943 12.527,4.127 16.37,10.504 4.446,7.376 4.287,16.415 7.396,20.438 2.319,3 5.148,0.285 7.312,-3.855 0.216,2.564 0.344,5.201 0.372,7.652 0.03,2.689 -0.736,10.861 -1.017,13.205 -0.51,4.232 -1.045,8.773 -1.115,10.158 -0.112,2.227 -0.124,4.174 0.033,5.434 0.61,4.888 2.922,5.568 6.401,2.804 1.892,-1.501 3.462,-3.343 4.816,-5.302 -1.545,6.554 -2.94,13.506 -3.952,21.133 -1.912,14.398 -1.662,18.55 1.139,20.88 2.183,1.815 7.125,-1.154 9.539,-3.755 0.489,-0.528 0.953,-1.049 1.397,-1.565 -2.762,11.221 -5.11,23.391 -4.628,30.264 0.392,5.605 4.136,8.676 8.291,4.41 1.998,-2.051 4.013,-4.777 5.908,-7.781 -1.973,6.453 -3.151,13.093 -4.384,21.402 -2.476,16.697 0.523,23.053 2.803,24.414 0.91,0.545 2.161,0.641 3.924,0.047 6.323,-2.129 10.945,-9.938 14.395,-17.705 -0.632,5.81 -1.057,11.375 -1.063,15.051 -0.009,5.175 0,11.474 1.837,19.691 0.637,2.852 1.721,6.006 3.893,6.883 3.629,1.465 8.227,-1.711 12.726,-6.6 3.778,-4.105 7.482,-9.418 10.49,-14.211 -2.003,21.653 -1.397,34.438 1.955,38.678 0.573,0.725 1.558,1.416 2.432,1.555 -8.414,0.783 -16.934,1.203 -25.552,1.203 -62.437,0 -119.954,-21.031 -165.885,-56.377 5.756,-5.719 11.77,-12.791 16.534,-19.272 -0.578,6.623 0.416,11.092 2.516,12.168 5.232,2.68 16.841,-13.285 23.315,-22.543 10.085,-14.423 20.207,-34.597 27.905,-56.671 6.74,-19.331 8.721,-40.307 6.276,-60.411 -0.018,-0.151 -0.137,-0.734 -0.368,-1.445 -1.198,6.426 -2.958,12.5 -5.654,18.057 -0.505,1.041 -0.993,2.043 -1.472,3.027 -9.087,18.656 -13.978,27.645 -30.429,47.596 -1.866,2.263 -8.971,9.859 -12.3,9.459 -3.085,-0.371 -4.624,-2.801 -2.834,-10.469 -8.571,9.102 -22.188,23.834 -37.195,31.201 -2.613,1.283 -12.669,6.149 -7.601,-7.017 -5.363,4.5 -12.925,10.166 -21.327,15.48 -5.96,-7.09 -11.571,-14.482 -16.792,-22.162 4.483,-2.109 8.482,-4.266 11.649,-6.295 -3.317,6.453 -3.688,9.713 -2.263,10.467 2.966,1.566 13.903,-4.631 16.226,-5.836 16.163,-8.391 32.938,-17.783 44.943,-30.494 -2.448,6.799 -1.548,9.385 0.49,9.326 4.47,-0.131 34.806,-19.381 53.892,-48.59 1.613,-2.469 3.156,-5 4.586,-7.606 1.374,-2.503 3.173,-5.603 4.415,-9.089 -0.227,-0.241 -0.818,-1.071 -4.454,-2.363 -1.819,-0.646 -4.458,-1.224 -7.584,-1.805 -1.249,-0.233 -3.7,-0.546 -6.781,-0.749 -4.323,-0.283 -9.897,-0.347 -15.21,0.355 -6.979,0.923 -14.065,1.836 -21.417,3.657 -17.771,4.403 -43.091,10.928 -60.237,17.526 -13.539,5.211 -29.271,10.98 -46.223,18.695 C 22.736,357.374 16,323.608 16,288.267 16,137.899 137.898,16 288.269,16 c 150.366,0 272.267,121.899 272.267,272.267 0,141.062 -107.278,257.066 -244.694,270.886 M 298.07,221.254 c 5.85,-0.073 12.529,1.825 17.251,6.079 0.695,0.626 1.378,1.306 2.022,2.045 1.317,1.511 2.457,3.289 3.117,5.495 0.424,1.422 0.513,2.594 0.612,3.521 0.157,1.483 0.084,2.407 -0.034,3.116 -0.174,1.041 -0.425,1.46 -0.99,1.466 -0.253,0.003 -0.484,-0.114 -0.695,-0.448 -0.511,-2.96 -1.441,-5.505 -2.672,-7.708 -2.591,-4.643 -6.461,-7.815 -10.306,-10.35 -1.411,-0.929 -4.395,-2.368 -8.305,-3.216 m 10.334,43.448 c -6.592,-0.899 -16.433,-0.627 -23.151,0.904 -7.304,-3.282 -12.552,-14.922 -11.277,-23.036 0.577,-3.673 1.426,-7.196 3.349,-9.705 0.304,-0.397 0.612,-0.774 0.922,-1.137 0.104,-0.121 0.21,-0.231 0.314,-0.349 0.207,-0.233 0.414,-0.466 0.623,-0.684 0.125,-0.13 0.252,-0.251 0.377,-0.376 0.192,-0.189 0.382,-0.38 0.574,-0.559 0.135,-0.124 0.271,-0.241 0.406,-0.359 0.185,-0.164 0.371,-0.326 0.557,-0.478 0.139,-0.115 0.279,-0.223 0.419,-0.331 0.184,-0.143 0.369,-0.284 0.554,-0.417 0.141,-0.102 0.283,-0.199 0.424,-0.295 0.186,-0.126 0.373,-0.248 0.559,-0.366 0.141,-0.087 0.282,-0.174 0.423,-0.257 0.189,-0.111 0.377,-0.216 0.566,-0.318 0.139,-0.076 0.279,-0.151 0.419,-0.222 0.192,-0.097 0.384,-0.187 0.577,-0.275 0.135,-0.062 0.272,-0.126 0.408,-0.184 0.2,-0.086 0.399,-0.163 0.599,-0.239 0.128,-0.049 0.256,-0.101 0.385,-0.146 0.216,-0.076 0.432,-0.143 0.647,-0.209 0.111,-0.034 0.222,-0.073 0.334,-0.104 0.265,-0.076 0.53,-0.141 0.795,-0.202 0.06,-0.014 0.122,-0.032 0.182,-0.045 0.326,-0.072 0.652,-0.132 0.976,-0.183 0.076,-0.012 0.151,-0.019 0.227,-0.03 0.246,-0.035 0.493,-0.068 0.737,-0.092 0.113,-0.011 0.225,-0.017 0.339,-0.026 0.205,-0.016 0.411,-0.033 0.615,-0.041 0.124,-0.006 0.247,-0.007 0.37,-0.01 0.171,-0.004 0.342,-0.006 0.512,-0.005 0.501,0.002 0.994,0.027 1.481,0.068 4.915,0.414 9.047,2.639 10.922,3.874 4.854,3.198 8.923,9.21 9.862,16.61 0.281,2.205 1.048,6.823 -1.649,12.967 -0.934,2.126 -2.514,4.438 -4.377,6.257 m -29.856,3.097 c 0.75,0.637 1.775,1.491 3.927,2.463 1.128,0.51 2.423,0.635 2.859,0.56 3.324,-0.569 7.944,-1.179 8.82,-1.235 2.711,-0.177 6.562,-0.265 10.803,0.37 1.93,0.288 4.632,0.935 6.951,1.668 -1.235,-0.014 -3.099,-0.266 -4.988,-0.266 -8.926,0 -15.507,3.389 -23.802,5.953 -7.603,2.35 -14.43,3.985 -25.802,3.456 -12.238,-0.569 -27.904,-4.495 -36.932,-9.544 1.006,-1.168 1.86,-2.153 2.211,-2.57 4.145,-4.922 14.616,-14.857 21.524,-20.36 5.148,-4.101 12.315,-10.406 17.809,-13.995 4.214,-2.753 10.165,-5.815 15.435,-8.163 -4.89,4.002 -7.408,10.686 -8.033,14.671 -1.618,9.871 1.771,20.66 9.218,26.992 M 553.876,176.056 C 539.355,141.727 518.572,110.901 492.103,84.432 465.634,57.963 434.808,37.18 400.479,22.66 364.93,7.624 327.177,0 288.269,0 249.36,0 211.606,7.624 176.056,22.66 141.728,37.18 110.9,57.963 84.432,84.432 57.963,110.901 37.18,141.727 22.66,176.056 7.624,211.605 0,249.359 0,288.267 c 0,36.577 6.767,72.232 20.111,105.974 7.75,19.595 17.714,38.406 29.615,55.912 5.464,8.035 11.444,15.929 17.776,23.461 13.415,15.965 28.598,30.509 45.125,43.226 24.657,18.974 52.001,33.738 81.271,43.88 30.288,10.495 62.038,15.816 94.371,15.816 8.872,0 17.968,-0.428 27.035,-1.273 0.228,-0.02 0.46,-0.04 0.694,-0.059 0.488,-0.041 0.976,-0.083 1.464,-0.133 70.688,-7.109 136.074,-40.095 184.093,-92.879 48.352,-53.148 74.981,-122.019 74.981,-193.925 0,-38.908 -7.624,-76.662 -22.66,-112.211"
         fill="#292929"
         id="path863"
         style="stroke-width:3.30579" />
    </g>
  </g>
</svg>
