<?xml version="1.0" encoding="UTF-8" standalone="no"?>
<svg
   xmlns:dc="http://purl.org/dc/elements/1.1/"
   xmlns:cc="http://creativecommons.org/ns#"
   xmlns:rdf="http://www.w3.org/1999/02/22-rdf-syntax-ns#"
   xmlns:svg="http://www.w3.org/2000/svg"
   xmlns="http://www.w3.org/2000/svg"
   xmlns:sodipodi="http://sodipodi.sourceforge.net/DTD/sodipodi-0.dtd"
   xmlns:inkscape="http://www.inkscape.org/namespaces/inkscape"
   id="Logo"
   viewBox="0 0 408.48001 163.92999"
   version="1.1"
   sodipodi:docname="savoir-faire-linux-logo.svg"
   inkscape:version="1.0.2 (e86c870879, 2021-01-15)"
   width="408.48001"
   height="163.92999">
  <metadata
     id="metadata1219">
    <rdf:RDF>
      <cc:Work
         rdf:about="">
        <dc:format>image/svg+xml</dc:format>
        <dc:type
           rdf:resource="http://purl.org/dc/dcmitype/StillImage" />
        <dc:title></dc:title>
      </cc:Work>
    </rdf:RDF>
  </metadata>
  <sodipodi:namedview
     pagecolor="#ffffff"
     bordercolor="#666666"
     borderopacity="1"
     objecttolerance="10"
     gridtolerance="10"
     guidetolerance="10"
     inkscape:pageopacity="0"
     inkscape:pageshadow="2"
     inkscape:window-width="2560"
     inkscape:window-height="1416"
     id="namedview1217"
     showgrid="false"
     inkscape:zoom="3.3426929"
     inkscape:cx="213.92222"
     inkscape:cy="86.73791"
     inkscape:window-x="0"
     inkscape:window-y="695"
     inkscape:window-maximized="0"
     inkscape:current-layer="Logo"
     fit-margin-top="0"
     fit-margin-left="0"
     fit-margin-right="0"
     fit-margin-bottom="0" />
  <defs
     id="defs1170">
    <style
       id="style1168">.cls-1{fill:none;}.cls-2{fill:#b4afa8;}.cls-3{fill:#00b5db;}.cls-4{fill:#fff;}</style>
  </defs>
  <rect
     class="cls-1"
     width="408.48001"
     height="163.92999"
     id="rect1172"
     x="0"
     y="0" />
  <g
     id="g1366"
     transform="matrix(0.95998262,0,0,0.95998262,8.1734403,3.278884)"
     style="stroke-width:1.04169">
    <path
       class="cls-2"
       d="m 171.14,52.88 c -1.95,0 -4.23,-2.24 -8,-2.24 -3.39,0 -5.58,1.91 -5.58,4.48 0,2.16 1.26,4 6.6,4.73 7.44,1 10.24,3 10.24,6.81 0,5 -4.32,8 -11.6,8 -5.5,0 -9.9,-2.32 -9.9,-3.52 0,-0.89 1,-0.77 1.86,-0.77 1.78,0 3.7,2.08 8.35,2.08 3.9,0 5.31,-2.24 5.31,-4.64 0,-3 -0.71,-4.53 -5.45,-5.09 -6.85,-0.8 -10.07,-2.65 -10.07,-6.82 0,-4.64 3.89,-7.69 10.33,-7.69 4.23,0 9.39,2.08 9.39,3.53 0,0.64 -0.85,1.12 -1.44,1.12"
       id="path1174"
       style="stroke-width:1.04169" />
    <path
       class="cls-2"
       d="m 185,72.92 c 3.21,0 5.92,-2.25 5.92,-5.13 a 3.5,3.5 0 0 0 -3.8,-3.37 c -2.8,0 -6.19,2.24 -6.19,4.81 a 3.9,3.9 0 0 0 4.07,3.69 m -7.45,-3.13 c 0,-3.29 3.13,-5.13 7,-5.61 3.87,-0.48 6.17,-2 6.17,-3.69 a 4.08,4.08 0 0 0 -4.06,-4.17 H 186 c -2.45,0 -3.55,2.41 -5.41,2.41 -0.51,0 -1,0.08 -1,-0.56 0,-1.6 3.39,-2.65 6.43,-2.65 9,0 8.3,3.13 8.3,10.91 v 5.84 c 0,1 -0.51,1.61 -1.53,1.61 -0.84,0 -2.37,-0.56 -3.72,-0.56 -2.54,0 -3.22,1.12 -5.92,1.12 -3,0 -5.59,-1.77 -5.59,-4.65"
       id="path1176"
       style="stroke-width:1.04169" />
    <path
       class="cls-2"
       d="m 206.77,66.58 c 1.18,0 2.19,-0.88 2.7,-2.56 l 1.78,-6.33 a 2.64,2.64 0 0 1 2.63,-2.08 c 0.25,0 1.44,0.07 1.52,1.12 a 8.07,8.07 0 0 1 -0.59,2.16 L 210,72.2 a 2.83,2.83 0 0 1 -2.87,2.16 c -1.87,0 -3.05,-0.48 -3.81,-2.64 l -4.74,-13.23 c -0.76,-2.08 -0.34,-2.81 1,-2.81 2,0 2.54,0.33 3.39,4 1.1,4.73 1.78,6.89 3.81,6.89"
       id="path1178"
       style="stroke-width:1.04169" />
    <path
       class="cls-2"
       d="m 228.47,72.76 c 3.39,0 6.78,-2.65 6.78,-7.62 0,-5.61 -3.3,-7.85 -6.86,-7.85 a 6.91,6.91 0 0 0 -6.85,7.21 c 0,5.13 2.7,8.26 6.93,8.26 m -0.08,1.76 c -6.26,0 -10.16,-3.77 -10.16,-9.54 a 9.14,9.14 0 0 1 9.32,-9.46 c 7.1,0 11.08,3.29 11.08,9.54 0,5.77 -4,9.46 -10.24,9.46"
       id="path1180"
       style="stroke-width:1.04169" />
    <path
       class="cls-2"
       d="m 245.44,50.64 c -1.27,0 -1.69,-0.4 -1.69,-1 0,-0.6 0.42,-1 1.35,-1 0.93,0 1.7,0.24 1.7,1 0,0.65 -0.85,1 -1.36,1 m 1.78,20.75 c 0,1.85 -0.59,2.81 -1.78,2.81 -1.86,0 -2.12,-0.48 -2.12,-4.17 V 58.65 c 0,-1.92 0.43,-2.88 1.87,-2.88 2,0 2,0.87 2,4.32 z"
       id="path1182"
       style="stroke-width:1.04169" />
    <path
       class="cls-2"
       d="m 262.32,56 c 0.68,0 1.44,0.07 1.44,1.28 0,1 -1.44,1.2 -2.79,1.92 a 7.17,7.17 0 0 0 -2.79,1.93 5.75,5.75 0 0 0 -1.18,3.53 v 6.89 c 0,1.85 -0.59,2.73 -1.69,2.73 -2.21,0 -2.54,-0.48 -2.54,-3.85 v -12.1 c 0,-1.85 0.68,-2.81 2.12,-2.81 1.18,0 3.63,0.65 4.06,0.65 1.36,0 2.2,-0.16 3.38,-0.16"
       id="path1184"
       style="stroke-width:1.04169" />
    <path
       class="cls-2"
       d="m 276.51,64.92 a 2.07,2.07 0 0 1 -2.28,2.33 h -2.8 a 2.16,2.16 0 0 1 -2.19,-2.33 c 0,-1.38 0.68,-2.22 1.94,-2.22 h 3.22 a 2,2 0 0 1 2.11,2.22"
       id="path1186"
       style="stroke-width:1.04169" />
    <path
       class="cls-2"
       d="m 291.69,51.19 a 4.11,4.11 0 0 0 -0.93,2 2.59,2.59 0 0 0 0.42,1.28 c 0.26,0.4 1.61,1.2 1.61,1.93 0,0.73 -0.51,0.64 -1.61,1.6 a 4.68,4.68 0 0 0 -1.61,3.45 v 8.25 c 0,3.69 -0.34,4.33 -2,4.33 -1.66,0 -2,-0.64 -2,-4.33 l -0.08,-8.1 a 4.64,4.64 0 0 0 -1.19,-3.36 c -0.51,-0.64 -1.52,-1.13 -1.52,-1.77 0,-0.8 0.59,-0.8 1.52,-1.92 0.42,-0.56 0.59,-0.92 1.86,-4.09 0.43,-1 1.44,-2.52 4.74,-2.52 1.86,0 2.45,0.52 2.45,1.4 0,0.72 0.09,0.56 -1.6,1.84"
       id="path1188"
       style="stroke-width:1.04169" />
    <path
       class="cls-2"
       d="m 303.45,72.92 c 3.22,0 5.93,-2.25 5.93,-5.13 a 3.51,3.51 0 0 0 -3.81,-3.37 c -2.8,0 -6.18,2.24 -6.18,4.81 a 3.89,3.89 0 0 0 4.06,3.69 M 296,69.79 c 0,-3.29 3.14,-5.13 7,-5.61 3.86,-0.48 6.18,-2 6.18,-3.69 a 4.09,4.09 0 0 0 -4.07,-4.17 h -0.67 c -2.46,0 -3.56,2.41 -5.42,2.41 -0.51,0 -1,0.08 -1,-0.56 0,-1.6 3.39,-2.65 6.44,-2.65 9,0 8.29,3.13 8.29,10.91 v 5.84 c 0,1 -0.5,1.61 -1.52,1.61 -0.85,0 -2.37,-0.56 -3.72,-0.56 -2.55,0 -3.22,1.12 -5.93,1.12 -3,0 -5.59,-1.77 -5.59,-4.65"
       id="path1190"
       style="stroke-width:1.04169" />
    <path
       class="cls-2"
       d="m 320.63,50.64 c -1.27,0 -1.69,-0.4 -1.69,-1 0,-0.6 0.42,-1 1.35,-1 0.93,0 1.69,0.24 1.69,1 0,0.65 -0.84,1 -1.35,1 m 1.78,20.75 c 0,1.85 -0.59,2.81 -1.78,2.81 -1.86,0 -2.12,-0.48 -2.12,-4.17 V 58.65 c 0,-1.92 0.43,-2.88 1.87,-2.88 2,0 2,0.87 2,4.32 z"
       id="path1192"
       style="stroke-width:1.04169" />
    <path
       class="cls-2"
       d="m 336.67,56 c 0.67,0 1.43,0.07 1.43,1.28 0,1 -0.59,1.2 -1.94,1.92 a 7.17,7.17 0 0 0 -2.79,1.93 5.75,5.75 0 0 0 -1.19,3.52 v 6.89 c 0,1.85 -0.59,2.73 -1.69,2.73 -2.2,0 -2.54,-0.48 -2.54,-3.85 V 58.33 c 0,-1.85 0.68,-2.81 2.12,-2.81 1.18,0 3.64,0.65 4.06,0.65 1.35,0 1.35,-0.16 2.54,-0.16"
       id="path1194"
       style="stroke-width:1.04169" />
    <path
       class="cls-2"
       d="M 349.53,64.1 H 351 c 2,0 4,-1.44 4,-3 0,-2 -1.7,-3.93 -4.74,-3.93 -3.22,0 -5.16,1.61 -5.16,3.69 0,1.93 1.94,3.29 4.48,3.29 m 7.54,0.56 -5.34,-0.08 c -5.25,0 -7.11,0.88 -7.11,3.61 0,2.41 2.79,4.73 5.67,4.73 a 5.56,5.56 0 0 0 3,-0.56 l 2.2,-1.37 c 0.43,-0.24 0.51,-0.56 1.36,-0.56 2.28,0 -0.17,4.09 -6.77,4.09 -5.59,0 -9.31,-3.61 -9.31,-9.22 0,-5.93 3.22,-9.78 9.31,-9.78 7.28,0 8.88,5.62 8.88,7.7 0,1 -0.51,1.44 -1.85,1.44"
       id="path1196"
       style="stroke-width:1.04169" />
    <path
       class="cls-3"
       d="m 164.92,107.93 c 1.82,1.83 8,2.26 19.57,2.26 2.89,0 4.86,0.76 4.86,2.27 0,1.83 -1.67,2.8 -4.86,2.8 h -26 c -2.89,0 -4.4,-1 -4.4,-3.66 V 85 c 0,-2.26 1.67,-3.34 4.55,-3.34 3.35,0 4.71,1.18 4.71,3.34 -0.15,22.86 -0.15,21.17 1.52,22.9"
       id="path1198"
       style="stroke-width:1.04169" />
    <path
       class="cls-3"
       d="m 206.82,112.23 c 0,2 -1.4,3 -3.68,3 -2,0 -3.3,-0.43 -3.3,-5.39 V 85.3 c 0,-1.83 1.47,-2.9 3.49,-2.9 2.43,0 3.49,1 3.49,5.26 z"
       id="path1200"
       style="stroke-width:1.04169" />
    <path
       class="cls-3"
       d="M 229.09,84.57 239,97.24 c 4,5.16 8.65,6.72 11.69,6.72 3.8,0 5.93,-2.69 5.93,-6 V 85 c 0,-1.57 0.6,-2.35 2,-2.35 1.22,0 1.82,1.12 1.82,3.25 v 27.25 c 0,1.69 -0.91,2.58 -2.89,2.58 h -1.21 a 6.07,6.07 0 0 1 -4.56,-2 L 236.84,98.36 c -1.68,-2.13 -4.1,-3.81 -6.38,-3.81 -4.11,0 -6.23,2.24 -6.23,6.16 v 12 c 0,1.57 -0.31,2.81 -2,2.81 -1.21,0 -1.82,-0.79 -1.82,-3.25 V 85 c 0,-1.68 0.76,-2.58 2.28,-2.58 h 2 a 4.81,4.81 0 0 1 4.41,2.14"
       id="path1202"
       style="stroke-width:1.04169" />
    <path
       class="cls-3"
       d="m 280.13,85.72 v 17.79 c 0,5.82 5,9.81 12.61,9.81 7.61,0 12.61,-4 12.61,-9.81 V 85.72 c 0,-2.27 0.61,-3.56 3.49,-3.56 2.59,0 3.65,0.54 3.65,5.07 v 15.85 c 0,6.14 -4.25,13.58 -19.75,13.58 -14.59,0 -19.75,-6.25 -19.75,-13.58 V 85.72 c 0,-2 0.76,-3.45 2.43,-3.45 h 2 c 1.83,0 2.74,1.18 2.74,3.45"
       id="path1204"
       style="stroke-width:1.04169" />
    <path
       class="cls-3"
       d="m 350.68,84 c 1.07,-1.07 2.43,-2 6.23,-2 1.67,0 2.59,0.11 2.59,1.08 0,0.97 -0.77,1.83 -4.26,5.07 -6.54,6 -7.29,7.54 -7.29,9.49 0,1.95 1.51,3.56 2.43,4.53 11.85,12 12.15,11.85 12.15,12.82 0,0.97 -0.76,1.19 -2.89,1.19 -4.56,0 -5.47,-0.54 -10.64,-6.57 -3.64,-4.31 -5.76,-5.39 -7.74,-5.39 -3.65,0 -5,0.86 -10.18,6.9 -4.56,5.28 -6.23,5.06 -9.27,5.06 -2,0 -3,-0.43 -3,-1.19 0,-0.76 2.13,-2.47 4.72,-5.17 -2.59,2.59 7.74,-7.65 8.2,-8.19 a 6.71,6.71 0 0 0 2,-4 c 0,-1.3 -1.36,-3.45 -2.12,-4.21 l -8.36,-8.3 c -3,-2.91 -0.15,-3.13 0.91,-3.13 5.17,0 5.47,0.22 10,5.39 2.28,2.59 4.25,3.78 6.53,3.78 a 7.39,7.39 0 0 0 5,-1.83 c 1.53,-1.41 3.34,-3.67 5,-5.29"
       id="path1206"
       style="stroke-width:1.04169" />
    <path
       class="cls-3"
       d="m 370.58,83.52 a 4.94,4.94 0 0 0 -8.5,3.38 5,5 0 0 0 4.92,4.87 5,5 0 0 0 3.4,-1.35 4.82,4.82 0 0 0 1.49,-3.54 5,5 0 0 0 -1.31,-3.36 z m 0.57,3.47 A 4.17,4.17 0 0 1 367,91.24 3.92,3.92 0 0 1 364,90 a 4.67,4.67 0 0 1 -1.18,-3.2 4.13,4.13 0 0 1 4.2,-4.23 3.87,3.87 0 0 1 2.92,1.3 4.64,4.64 0 0 1 1.21,3.13 z"
       id="path1208"
       style="stroke-width:1.04169" />
    <path
       class="cls-3"
       d="m 367.69,84.54 h -1.51 c -0.88,0 -1,0.4 -1,1.28 v 2.73 c 0,0.16 0,0.66 0.36,0.66 0.36,0 0.3,-0.29 0.32,-0.49 a 0.28,0.28 0 0 0 0,-0.09 c 0.09,-0.52 0.35,-0.86 0.66,-0.86 0.47,0 0.74,0.4 1.07,1 0.33,0.6 0.38,0.5 0.52,0.5 a 0.2,0.2 0 0 0 0.22,-0.22 1.26,1.26 0 0 0 -0.12,-0.41 A 2,2 0 0 1 368,88 1.23,1.23 0 0 1 368.46,87 1.46,1.46 0 0 0 369,85.75 1.36,1.36 0 0 0 367.69,84.54 Z M 368,86 c 0,0.51 -0.43,0.86 -1.06,0.86 A 0.9,0.9 0 0 1 366,86 a 1,1 0 0 1 1,-0.89 1,1 0 0 1 1,0.89 z"
       id="path1210"
       style="stroke-width:1.04169" />
    <path
       class="cls-3"
       d="M 88.15,34.62 A 47.49,47.49 0 1 0 131.41,86 47.49,47.49 0 0 0 88.15,34.62"
       id="path1212"
       style="stroke-width:1.04169" />
    <path
       class="cls-4"
       d="m 120.05,96.37 c -1.08,1.24 -6.65,-5.69 -10,-6.7 -4,-1.22 -8.68,-3.27 -12.12,-4.7 a 62.18,62.18 0 0 1 1.37,12.76 c -0.04,9.27 -3.36,20.07 -13.6,20.07 -10.24,0 -15.7,-8.4 -14.16,-17.58 0.82,-4.9 2.44,-10.9 2.27,-11 a 17.61,17.61 0 0 0 -3,-0.15 c -1.81,0.07 -2.92,0.58 -5.2,0.83 a 24.94,24.94 0 0 0 -8,2.77 c -3.54,1.73 -7,7.27 -8.09,5.56 -1.59,-2.5 3.92,-13 10.55,-17.63 6,-4.15 9.58,-6.18 11.06,-7.43 1.48,-1.25 3,-2.59 3.41,-4.2 a 9.14,9.14 0 0 0 -0.68,-4 c -0.32,-1 -1.53,-2.91 -2.44,-5.46 a 8.41,8.41 0 0 1 2.14,-8.4 c 2.37,-2.48 8,-2.64 11.25,-2.57 3.25,0.07 1.8,-0.25 4.47,-0.72 a 7.16,7.16 0 0 1 5.28,0.77 1.38,1.38 0 0 1 -0.56,1.28 c -0.61,0.36 -1.54,1.13 -2.95,2 -1.41,0.87 -3,2.87 -4.42,4.42 a 5.77,5.77 0 0 0 -1.28,5.26 c 0.36,1.36 2.32,3 3.53,4.43 1.76,1.51 3.63,3 3.63,3 a 107.53,107.53 0 0 1 11,6.81 c 14.56,10.2 18.92,17.78 16.44,20.64"
       id="path1214"
       style="stroke-width:1.04169" />
  </g>
</svg>
