<?xml version="1.0" encoding="UTF-8" standalone="no"?>
<svg
   xmlns:dc="http://purl.org/dc/elements/1.1/"
   xmlns:cc="http://creativecommons.org/ns#"
   xmlns:rdf="http://www.w3.org/1999/02/22-rdf-syntax-ns#"
   xmlns:svg="http://www.w3.org/2000/svg"
   xmlns="http://www.w3.org/2000/svg"
   xmlns:sodipodi="http://sodipodi.sourceforge.net/DTD/sodipodi-0.dtd"
   xmlns:inkscape="http://www.inkscape.org/namespaces/inkscape"
   version="1.1"
   id="Ebene_1"
   width="354.467"
   height="85.04"
   viewBox="0 0 354.467 85.04"
   style="overflow:visible;enable-background:new 0 0 354.467 85.04;"
   xml:space="preserve"
   sodipodi:docname="logo_blue.svg"
   inkscape:version="1.0.2 (e86c870879, 2021-01-15)"><metadata
   id="metadata67"><rdf:RDF><cc:Work
       rdf:about=""><dc:format>image/svg+xml</dc:format><dc:type
         rdf:resource="http://purl.org/dc/dcmitype/StillImage" /></cc:Work></rdf:RDF></metadata><defs
   id="defs65" /><sodipodi:namedview
   pagecolor="#ffffff"
   bordercolor="#666666"
   borderopacity="1"
   objecttolerance="10"
   gridtolerance="10"
   guidetolerance="10"
   inkscape:pageopacity="0"
   inkscape:pageshadow="2"
   inkscape:window-width="1920"
   inkscape:window-height="1052"
   id="namedview63"
   showgrid="false"
   inkscape:zoom="3.8552201"
   inkscape:cx="177.23351"
   inkscape:cy="42.52"
   inkscape:window-x="4480"
   inkscape:window-y="0"
   inkscape:window-maximized="1"
   inkscape:current-layer="g60" />
<style
   type="text/css"
   id="style2">
<![CDATA[
	.st0{fill-rule:evenodd;clip-rule:evenodd;fill:#ffffff;}
]]>
</style>
<g
   id="g60">
	<g
   id="g56">
		<polygon
   class="st0"
   points="138.525,6.336 139.409,5.614 140.316,4.927 140.781,4.601 141.257,4.288 142.223,3.68 142.712,3.389     143.212,3.109 144.234,2.597 145.282,2.121 146.351,1.678 146.897,1.479 147.445,1.294 148.562,0.955 149.703,0.664     150.853,0.431 151.435,0.325 152.028,0.245 153.214,0.104 153.82,0.059 154.425,0.022 155.028,0 155.635,0 162.136,0 168.64,0     175.14,0 181.643,0 188.146,0 194.645,0 201.149,0 207.653,0 208.873,0.022 210.068,0.104 210.675,0.163 211.268,0.245     212.443,0.431 213.607,0.676 214.734,0.967 215.853,1.305 216.409,1.491 216.959,1.688 218.028,2.121 219.074,2.609 219.6,2.866     220.099,3.133 221.098,3.693 222.063,4.297 223.005,4.952 223.471,5.29 223.924,5.638 224.796,6.361 219.398,6.348 214.002,6.348     208.604,6.348 203.22,6.348 197.822,6.348 192.438,6.348 187.041,6.348 181.654,6.348 176.257,6.336 170.872,6.336 165.474,6.336     160.089,6.336 154.693,6.336 149.306,6.336 143.908,6.336 138.525,6.336   "
   id="polygon4"
   style="fill:#143d77;fill-opacity:1" />
		<polygon
   class="st0"
   points="233.207,48.741 227.703,48.741 222.212,48.741 216.711,48.741 211.224,48.741 205.721,48.741     200.231,48.741 194.739,48.741 189.249,48.741 183.748,48.741 178.257,48.741 172.757,48.741 167.266,48.741 161.763,48.741     156.273,48.741 150.785,48.741 145.294,48.741 144.619,48.726 143.968,48.683 143.642,48.645 143.317,48.612 142.664,48.52     142.035,48.401 141.408,48.262 140.791,48.086 140.175,47.9 138.999,47.449 138.418,47.192 137.86,46.899 137.314,46.596     136.779,46.282 136.257,45.933 135.757,45.571 135.266,45.187 134.79,44.791 134.325,44.37 133.883,43.928 133.452,43.475     133.046,43.008 132.661,42.519 132.289,42.017 131.94,41.505 131.603,40.982 131.289,40.433 130.998,39.875 130.731,39.303     130.487,38.732 130.266,38.14 130.056,37.533 135.546,37.521 141.047,37.521 146.538,37.521 152.039,37.521 157.529,37.521     163.032,37.521 168.522,37.521 174.023,37.521 179.515,37.511 185.015,37.511 190.505,37.511 196.007,37.511 201.5,37.511     206.998,37.511 212.488,37.511 217.991,37.511 218.668,37.533 219.329,37.568 219.655,37.603 219.98,37.639 220.631,37.73     221.26,37.848 221.887,37.987 222.518,38.163 223.119,38.348 223.714,38.558 224.295,38.804 224.877,39.059 225.436,39.34     225.983,39.641 226.517,39.967 227.028,40.305 227.541,40.678 228.028,41.051 228.506,41.459 228.96,41.877 229.403,42.309     229.83,42.763 230.228,43.243 230.623,43.719 230.995,44.22 231.344,44.744 231.669,45.269 231.984,45.817 232.264,46.375     232.53,46.946 232.773,47.53 232.995,48.124 233.207,48.741   "
   id="polygon6"
   style="fill:#143d77;fill-opacity:1" />
		<polygon
   class="st0"
   points="228.935,10.868 229.251,11.312 229.565,11.766 229.866,12.231 230.16,12.697 230.717,13.652     231.23,14.642 231.694,15.644 232.138,16.67 232.52,17.729 232.693,18.253 232.869,18.8 226.46,18.8 220.06,18.8 213.653,18.8     207.254,18.8 200.848,18.8 194.45,18.8 188.039,18.8 181.643,18.8 175.233,18.8 168.836,18.8 162.426,18.8 156.03,18.8     149.622,18.8 143.223,18.8 136.826,18.8 130.429,18.813 130.766,17.742 131.15,16.693 131.58,15.669 132.057,14.667     132.557,13.687 133.114,12.731 133.394,12.267 133.697,11.802 134.012,11.347 134.325,10.902 140.233,10.893 146.142,10.893     152.051,10.893 157.973,10.893 163.88,10.881 169.802,10.881 175.708,10.881 181.631,10.881 187.539,10.868 193.448,10.868     199.355,10.868 205.278,10.868 211.188,10.868 217.109,10.868 223.017,10.868 228.935,10.868   "
   id="polygon8"
   style="fill:#143d77;fill-opacity:1" />
		<polygon
   class="st0"
   points="154.728,23.449 154.541,23.811 154.365,24.185 154.227,24.567 154.1,24.964 154.005,25.359     153.937,25.78 153.89,26.199 153.878,26.63 153.89,26.969 153.912,27.283 154.005,27.923 154.168,28.53 154.262,28.819     154.377,29.111 154.646,29.669 154.959,30.195 155.135,30.452 155.332,30.684 155.529,30.916 155.738,31.138 155.959,31.347     156.191,31.545 156.426,31.745 156.681,31.917 157.205,32.234 157.763,32.5 158.054,32.617 158.346,32.723 158.646,32.804     158.961,32.873 159.273,32.931 159.59,32.967 160.24,33.001 152.504,33.001 144.782,33.001 137.059,33.001 129.334,33.001     129.334,26.339 129.37,24.871 129.405,24.138 129.475,23.427 135.778,23.427 142.095,23.438 148.411,23.438 154.728,23.449   "
   id="polygon10"
   style="fill:#143d77;fill-opacity:1" />
		<polygon
   class="st0"
   points="208.641,23.438 208.836,23.787 209,24.159 209.153,24.557 209.278,24.952 209.373,25.359     209.441,25.78 209.487,26.199 209.5,26.63 209.479,27.106 209.431,27.562 209.349,28.006 209.235,28.447 215.408,28.459     221.587,28.469 227.76,28.482 233.952,28.495 233.952,26.339 233.914,24.871 233.869,24.138 233.8,23.427 227.505,23.427     221.213,23.427 214.921,23.427 208.641,23.438   "
   id="polygon12"
   style="fill:#143d77;fill-opacity:1" />
		<polygon
   class="st0"
   points="231.206,70.443 230.787,71.246 230.343,72.04 229.88,72.806 229.381,73.564 228.854,74.295     228.321,75.023 227.752,75.705 227.158,76.381 226.553,77.047 225.913,77.677 225.263,78.292 224.589,78.875 223.888,79.447     223.181,79.984 222.438,80.509 221.691,80.999 220.925,81.462 220.13,81.907 219.329,82.325 218.504,82.708 217.679,83.07     216.828,83.41 215.957,83.709 215.085,83.979 214.188,84.225 213.292,84.443 212.375,84.619 211.456,84.768 210.511,84.886     209.568,84.968 208.617,85.027 207.653,85.04 201.149,85.04 194.645,85.04 188.146,85.04 181.643,85.04 175.14,85.04     168.64,85.04 162.136,85.04 155.635,85.04 154.681,85.027 153.727,84.968 152.772,84.886 151.843,84.768 150.912,84.619     150.003,84.432 149.096,84.225 148.213,83.979 147.33,83.709 146.469,83.41 145.619,83.07 144.782,82.708 143.968,82.325     143.165,81.907 142.374,81.462 141.607,80.999 140.862,80.497 140.118,79.984 139.409,79.433 138.708,78.875 138.036,78.282     137.383,77.677 136.745,77.033 136.139,76.381 135.546,75.705 134.975,75.009 134.441,74.295 133.917,73.564 133.417,72.806     132.952,72.04 132.511,71.246 132.092,70.443 138.28,70.443 144.479,70.443 150.667,70.443 156.867,70.443 163.055,70.443     169.256,70.443 175.443,70.443 181.643,70.443 187.83,70.443 194.031,70.443 200.218,70.443 206.417,70.443 212.606,70.443     218.806,70.443 225.005,70.443 231.206,70.443   "
   id="polygon14"
   style="fill:#143d77;fill-opacity:1" />
		<polygon
   class="st0"
   points="234.045,53.249 226.296,53.249 218.56,53.249 210.815,53.249 203.081,53.249 203.081,53.26     203.732,53.293 204.372,53.387 204.989,53.551 205.57,53.761 206.128,54.028 206.407,54.181 206.662,54.344 207.153,54.703     207.396,54.915 207.616,55.125 207.825,55.346 208.022,55.567 208.223,55.81 208.396,56.055 208.721,56.581 208.861,56.858     208.987,57.139 209.21,57.721 209.373,58.339 209.431,58.655 209.467,58.968 209.487,59.294 209.5,59.62 209.487,59.945     209.467,60.271 209.373,60.904 209.292,61.206 209.21,61.505 209.104,61.812 208.987,62.1 208.721,62.649 208.396,63.17     208.223,63.429 208.022,63.661 207.616,64.118 207.153,64.524 206.917,64.712 206.662,64.899 206.128,65.213 205.57,65.48     205.278,65.595 204.989,65.69 204.685,65.783 204.372,65.853 204.057,65.897 203.732,65.945 203.081,65.98 203.081,65.991     210.56,65.991 218.037,65.991 225.517,65.991 233.007,65.991 233.238,65.12 233.438,64.255 233.613,63.383 233.752,62.496     233.856,61.586 233.952,60.667 234.021,59.738 234.068,58.768 234.045,53.249   "
   id="polygon16"
   style="fill:#143d77;fill-opacity:1" />
		<polygon
   class="st0"
   points="130.347,65.991 137.814,65.991 145.294,65.991 152.762,65.991 160.24,65.991 159.59,65.957     158.961,65.853 158.646,65.783 158.346,65.704 157.763,65.48 157.205,65.213 156.681,64.899 156.438,64.712 156.191,64.524     155.959,64.325 155.738,64.118 155.529,63.897 155.332,63.661 155.146,63.417 154.959,63.17 154.646,62.649 154.377,62.087     154.262,61.798 154.168,61.505 154.074,61.206 154.005,60.904 153.947,60.586 153.912,60.271 153.89,59.945 153.878,59.62     153.902,59.119 153.958,58.629 154.053,58.154 154.18,57.684 147.968,57.676 141.757,57.664 135.546,57.652 129.334,57.638     129.334,58.7 129.346,59.632 129.405,60.565 129.487,61.496 129.603,62.415 129.741,63.334 129.916,64.235 130.113,65.12     130.347,65.991   "
   id="polygon18"
   style="fill:#143d77;fill-opacity:1" />
		<polygon
   class="st0"
   points="25.649,6.336 26.534,5.614 27.441,4.927 27.906,4.601 28.383,4.288 29.348,3.68 29.836,3.389     30.336,3.109 31.362,2.597 32.408,2.121 33.478,1.678 34.026,1.479 34.57,1.294 35.689,0.955 36.828,0.664 37.979,0.431     38.56,0.325 39.154,0.245 40.339,0.104 40.945,0.059 41.55,0.022 42.156,0 42.759,0 49.263,0 55.764,0 62.265,0 68.77,0 75.271,0     81.773,0 88.274,0 94.777,0 95.998,0.022 97.196,0.104 97.802,0.163 98.393,0.245 99.568,0.431 100.732,0.676 101.861,0.967     102.978,1.305 103.536,1.491 104.081,1.688 105.153,2.121 106.198,2.609 106.723,2.866 107.224,3.133 108.224,3.693     109.188,4.297 110.131,4.952 110.596,5.29 111.051,5.638 111.923,6.361 106.525,6.348 101.129,6.348 95.731,6.348 90.346,6.348     84.947,6.348 79.563,6.348 74.166,6.348 68.78,6.348 63.383,6.336 57.997,6.336 52.601,6.336 47.214,6.336 41.818,6.336     36.433,6.336 31.037,6.336 25.649,6.336   "
   id="polygon20"
   style="fill:#143d77;fill-opacity:1" />
		<polygon
   class="st0"
   points="120.332,48.741 114.831,48.741 109.34,48.741 103.837,48.741 98.348,48.741 92.846,48.741     87.355,48.741 81.866,48.741 76.376,48.741 70.873,48.741 65.384,48.741 59.883,48.741 54.391,48.741 48.891,48.741 43.4,48.741     37.91,48.741 32.418,48.741 31.745,48.726 31.094,48.683 30.767,48.645 30.442,48.612 29.792,48.52 29.164,48.401 28.535,48.262     27.918,48.086 27.301,47.9 26.127,47.449 25.546,47.192 24.986,46.899 24.438,46.596 23.905,46.282 23.382,45.933 22.881,45.571     22.394,45.187 21.915,44.791 21.45,44.37 21.008,43.928 20.577,43.475 20.17,43.008 19.787,42.519 19.414,42.017 19.067,41.505     18.729,40.982 18.416,40.433 18.125,39.875 17.856,39.303 17.612,38.732 17.391,38.14 17.181,37.533 22.673,37.521 28.174,37.521     33.663,37.521 39.166,37.521 44.657,37.521 50.158,37.521 55.648,37.521 61.149,37.521 66.64,37.511 72.143,37.511 77.631,37.511     83.133,37.511 88.625,37.511 94.126,37.511 99.615,37.511 105.116,37.511 105.792,37.533 106.455,37.568 106.781,37.603     107.108,37.639 107.758,37.73 108.386,37.848 109.015,37.987 109.642,38.163 110.247,38.348 110.841,38.558 111.422,38.804     112.004,39.059 112.561,39.34 113.108,39.641 113.644,39.967 114.156,40.305 114.667,40.678 115.156,41.051 115.632,41.459     116.085,41.877 116.529,42.309 116.958,42.763 117.354,43.243 117.749,43.719 118.121,44.22 118.471,44.744 118.796,45.269     119.109,45.817 119.39,46.375 119.657,46.946 119.9,47.53 120.122,48.124 120.332,48.741   "
   id="polygon22"
   style="fill:#143d77;fill-opacity:1" />
		<polygon
   class="st0"
   points="116.063,10.868 116.376,11.312 116.692,11.766 116.993,12.231 117.284,12.697 117.843,13.652     118.355,14.642 118.818,15.644 119.262,16.67 119.646,17.729 119.82,18.253 119.994,18.8 113.586,18.8 107.188,18.8 100.779,18.8     94.381,18.8 87.973,18.8 81.574,18.8 75.167,18.8 68.77,18.8 62.358,18.8 55.962,18.8 49.554,18.8 43.156,18.8 36.747,18.8     30.349,18.8 23.95,18.8 17.553,18.813 17.891,17.742 18.275,16.693 18.707,15.669 19.183,14.667 19.683,13.687 20.242,12.731     20.521,12.267 20.824,11.802 21.137,11.347 21.45,10.902 27.359,10.893 33.269,10.893 39.177,10.893 45.099,10.893 51.007,10.881     56.927,10.881 62.837,10.881 68.757,10.881 74.666,10.868 80.575,10.868 86.483,10.868 92.404,10.868 98.313,10.868     104.234,10.868 110.142,10.868 116.063,10.868   "
   id="polygon24"
   style="fill:#143d77;fill-opacity:1" />
		<polygon
   class="st0"
   points="41.865,23.449 41.759,23.625 41.668,23.811 41.585,23.997 41.493,24.185 41.422,24.371     41.352,24.567 41.283,24.767 41.224,24.964 41.178,25.162 41.13,25.359 41.097,25.569 41.061,25.78 41.015,26.199 41.015,26.422     41.004,26.641 41.015,26.969 41.04,27.283 41.061,27.446 41.085,27.608 41.13,27.923 41.167,28.075 41.202,28.225 41.295,28.53     41.387,28.832 41.445,28.971 41.503,29.111 41.562,29.262 41.631,29.402 41.703,29.531 41.771,29.669 41.84,29.81 41.921,29.938     42.002,30.067 42.084,30.195 42.271,30.452 42.458,30.684 42.55,30.8 42.655,30.916 42.865,31.138 42.969,31.245 43.084,31.347     43.319,31.557 43.551,31.745 43.807,31.917 43.935,32 44.063,32.081 44.329,32.234 44.471,32.315 44.609,32.372 44.888,32.5     45.179,32.617 45.32,32.676 45.471,32.723 45.62,32.77 45.774,32.804 45.923,32.839 46.086,32.873 46.236,32.908 46.402,32.931     46.552,32.955 46.714,32.979 46.877,32.99 47.039,33.001 47.366,33.001 39.633,33.001 31.908,33.001 24.186,33.001 16.462,33.001     16.462,26.339 16.472,25.617 16.484,25.243 16.497,24.871 16.507,24.498 16.53,24.138 16.565,23.775 16.599,23.427 22.915,23.427     29.232,23.438 35.549,23.438 41.865,23.449   "
   id="polygon26"
   style="fill:#143d77;fill-opacity:1" />
		<polygon
   class="st0"
   points="95.767,23.438 95.963,23.787 96.126,24.159 96.277,24.557 96.405,24.952 96.5,25.359 96.567,25.78     96.615,26.199 96.626,26.63 96.604,27.106 96.558,27.562 96.476,28.006 96.358,28.447 102.536,28.459 108.711,28.469     114.888,28.482 121.076,28.495 121.076,26.339 121.041,24.871 120.995,24.138 120.925,23.427 114.632,23.427 108.34,23.427     102.045,23.427 95.767,23.438   "
   id="polygon28"
   style="fill:#143d77;fill-opacity:1" />
		<polygon
   class="st0"
   points="118.331,70.443 117.912,71.246 117.471,72.04 117.005,72.806 116.504,73.564 115.982,74.295     115.447,75.023 114.875,75.705 114.284,76.381 113.678,77.047 113.039,77.677 112.387,78.292 111.713,78.875 111.014,79.447     110.306,79.984 109.56,80.509 108.815,80.999 108.049,81.462 107.258,81.907 106.455,82.325 105.629,82.708 104.804,83.07     103.954,83.41 103.082,83.709 102.21,83.979 101.313,84.225 100.419,84.443 99.5,84.619 98.581,84.768 97.64,84.886     96.695,84.968 95.742,85.027 94.777,85.04 88.274,85.04 81.773,85.04 75.271,85.04 68.77,85.04 62.265,85.04 55.764,85.04     49.263,85.04 42.759,85.04 41.806,85.027 40.852,84.968 39.898,84.886 38.969,84.768 38.038,84.619 37.131,84.432 36.224,84.225     35.338,83.979 34.454,83.709 33.593,83.41 32.744,83.07 31.908,82.708 31.094,82.325 30.291,81.907 29.5,81.462 28.732,80.999     27.988,80.497 27.244,79.984 26.534,79.433 25.836,78.875 25.161,78.282 24.51,77.677 23.869,77.033 23.266,76.381 22.673,75.705     22.103,75.009 21.568,74.295 21.043,73.564 20.542,72.806 20.078,72.04 19.635,71.246 19.217,70.443 25.405,70.443 31.606,70.443     37.794,70.443 43.993,70.443 50.182,70.443 56.38,70.443 62.568,70.443 68.77,70.443 74.957,70.443 81.156,70.443 87.344,70.443     93.544,70.443 99.731,70.443 105.932,70.443 112.133,70.443 118.331,70.443   "
   id="polygon30"
   style="fill:#143d77;fill-opacity:1" />
		<polygon
   class="st0"
   points="121.169,53.249 113.422,53.249 105.688,53.249 97.94,53.249 90.207,53.249 90.207,53.26     90.858,53.293 91.497,53.387 92.114,53.551 92.695,53.761 93.252,54.028 93.531,54.181 93.788,54.344 94.278,54.703     94.522,54.915 94.742,55.125 94.951,55.346 95.15,55.567 95.347,55.81 95.522,56.055 95.847,56.581 95.986,56.858 96.114,57.139     96.336,57.721 96.5,58.339 96.558,58.655 96.593,58.968 96.615,59.294 96.626,59.62 96.615,59.945 96.593,60.271 96.5,60.904     96.417,61.206 96.336,61.505 96.23,61.812 96.114,62.1 95.847,62.649 95.522,63.17 95.347,63.429 95.15,63.661 94.742,64.118     94.278,64.524 94.044,64.712 93.788,64.899 93.252,65.213 92.695,65.48 92.404,65.595 92.114,65.69 91.811,65.783 91.497,65.853     91.183,65.897 90.858,65.945 90.207,65.98 90.207,65.991 97.684,65.991 105.164,65.991 112.644,65.991 120.134,65.991     120.366,65.12 120.563,64.255 120.738,63.383 120.878,62.496 120.982,61.586 121.076,60.667 121.145,59.738 121.191,58.768     121.169,53.249   "
   id="polygon32"
   style="fill:#143d77;fill-opacity:1" />
		<polygon
   class="st0"
   points="17.473,65.991 24.94,65.991 32.418,65.991 39.885,65.991 47.366,65.991 47.039,65.98 46.714,65.957     46.402,65.909 46.236,65.888 46.086,65.853 45.936,65.815 45.774,65.783 45.62,65.746 45.471,65.704 45.33,65.654 45.179,65.595     45.039,65.54 44.888,65.48 44.609,65.352 44.471,65.282 44.329,65.213 44.202,65.145 44.063,65.064 43.935,64.981 43.807,64.899     43.563,64.723 43.319,64.524 43.202,64.429 43.084,64.325 42.865,64.118 42.759,64.012 42.655,63.897 42.458,63.661     42.271,63.429 42.097,63.17 42.002,63.045 41.921,62.917 41.771,62.649 41.703,62.509 41.631,62.381 41.503,62.087 41.387,61.812     41.34,61.661 41.295,61.505 41.249,61.354 41.202,61.206 41.167,61.053 41.13,60.904 41.108,60.75 41.085,60.586 41.061,60.421     41.04,60.271 41.027,60.11 41.015,59.945 41.004,59.62 41.015,59.363 41.027,59.119 41.048,58.875 41.085,58.629 41.121,58.398     41.178,58.154 41.202,58.035 41.236,57.921 41.306,57.696 35.096,57.676 28.883,57.664 22.673,57.652 16.462,57.638 16.462,58.7     16.462,59.167 16.484,59.632 16.497,60.096 16.53,60.565 16.565,61.028 16.611,61.496 16.671,61.962 16.728,62.427 16.762,62.649     16.797,62.882 16.867,63.334 16.95,63.79 17.042,64.235 17.134,64.675 17.24,65.12 17.356,65.563 17.473,65.991   "
   id="polygon34"
   style="fill:#143d77;fill-opacity:1" />
		<polygon
   class="st0"
   points="326.771,0 333.692,0 340.613,0 347.534,0 354.467,0 350.979,6.361 344.043,6.361 337.125,6.361     330.192,6.361 323.268,6.361 326.771,0   "
   id="polygon36"
   style="fill:#143d77;fill-opacity:1" />
		<polygon
   class="st0"
   points="320.804,10.845 327.726,10.845 334.645,10.845 341.567,10.845 348.502,10.845 344.217,18.8     337.287,18.8 330.367,18.8 323.443,18.8 316.525,18.8 320.804,10.845   "
   id="polygon38"
   style="fill:#143d77;fill-opacity:1" />
		<polygon
   class="st0"
   points="314.044,23.427 320.966,23.427 327.89,23.427 334.808,23.427 341.742,23.427 339.146,28.214     336.563,33.001 329.634,33.001 322.711,33.001 315.782,33.001 308.86,33.001 311.454,28.214 314.044,23.427   "
   id="polygon40"
   style="fill:#143d77;fill-opacity:1" />
		<polygon
   class="st0"
   points="306.394,37.627 313.312,37.627 320.235,37.627 327.158,37.627 334.088,37.627 331.155,43.183     328.228,48.741 321.293,48.741 314.371,48.741 307.449,48.741 300.529,48.741 303.461,43.183 306.394,37.627   "
   id="polygon42"
   style="fill:#143d77;fill-opacity:1" />
		<polygon
   class="st0"
   points="258.759,0 251.83,0 244.907,0 237.985,0 231.067,0 234.557,6.361 241.474,6.361 248.397,6.361     255.32,6.361 262.249,6.361 258.759,0   "
   id="polygon44"
   style="fill:#143d77;fill-opacity:1" />
		<polygon
   class="st0"
   points="264.727,10.845 257.798,10.845 250.874,10.845 243.951,10.845 237.034,10.845 241.312,18.8     248.234,18.8 255.156,18.8 262.075,18.8 269.009,18.8 264.727,10.845   "
   id="polygon46"
   style="fill:#143d77;fill-opacity:1" />
		<polygon
   class="st0"
   points="271.487,23.427 264.551,23.427 257.633,23.427 250.712,23.427 243.788,23.427 246.372,28.214     248.966,33.001 255.889,33.001 262.806,33.001 269.729,33.001 276.663,33.001 274.068,28.214 271.487,23.427   "
   id="polygon48"
   style="fill:#143d77;fill-opacity:1" />
		<polygon
   class="st0"
   points="279.141,37.627 272.206,37.627 265.286,37.627 258.366,37.627 251.443,37.627 254.362,43.183     257.295,48.741 264.215,48.741 271.137,48.741 278.058,48.741 284.99,48.741 282.062,43.183 279.141,37.627   "
   id="polygon50"
   style="fill:#143d77;fill-opacity:1" />
		<polygon
   class="st0"
   points="292.782,63.07 295.415,58.209 298.054,53.361 304.975,53.361 311.893,53.361 318.814,53.361     325.748,53.361 322.317,59.677 318.885,65.991 312.349,65.991 305.821,65.991 299.287,65.991 292.762,65.991 286.222,65.991     279.697,65.991 273.174,65.991 266.647,65.991 263.205,59.677 259.772,53.361 266.695,53.361 273.612,53.361 280.535,53.361     287.466,53.361 290.121,58.209 292.782,63.07   "
   id="polygon52"
   style="fill:#143d77;fill-opacity:1" />
		<polygon
   class="st0"
   points="316.406,70.443 312.524,77.628 308.64,84.818 300.692,84.818 292.762,84.818 284.815,84.818     276.882,84.818 272.998,77.628 269.113,70.443 275.021,70.443 280.93,70.443 286.84,70.443 292.762,70.443 298.671,70.443     304.574,70.443 310.485,70.443 316.406,70.443   "
   id="polygon54"
   style="fill:#143d77;fill-opacity:1" />
	</g>
	<polygon
   class="st0"
   points="0,45.226 354.029,45.226 354.029,48.796 0,48.796 0,45.226 0,45.226  "
   id="polygon58"
   style="fill:#143d77;fill-opacity:1" />
</g>
</svg>
